<?xml version="1.0" encoding="UTF-8"?>
<svg width="14px" height="14px" viewBox="0 0 14 14" version="1.1" xmlns="http://www.w3.org/2000/svg" xmlns:xlink="http://www.w3.org/1999/xlink">
    <!-- Generator: sketchtool 62 (101010) - https://sketch.com -->
    <title>9041DF1B-07A6-490E-A97A-5C50BB32EF69</title>
    <desc>Created with sketchtool.</desc>
    <g id="Homepage-&amp;-Cubicle" stroke="none" stroke-width="1" fill="none" fill-rule="evenodd">
        <g id="Add-User" transform="translate(-558.000000, -570.000000)" fill="#C6D0DC" fill-rule="nonzero">
            <g id="Group-12" transform="translate(226.000000, 350.000000)">
                <g id="Group-10">
                    <g transform="translate(183.000000, 16.000000)">
                        <g id="Group-9" transform="translate(149.000000, 204.000000)">
                            <path d="M7,0 C3.14030769,0 0,3.14003846 0,7 C0,10.8599615 3.14030769,14 7,14 C10.8596923,14 14,10.8599615 14,7 C14,3.14003846 10.8596923,0 7,0 Z M10.3653846,7.53846154 L7.53846154,7.53846154 L7.53846154,10.5 C7.53846154,10.7972308 7.29723077,11.0384615 7,11.0384615 C6.70276923,11.0384615 6.46153846,10.7972308 6.46153846,10.5 L6.46153846,7.53846154 L3.63461538,7.53846154 C3.33738462,7.53846154 3.09615385,7.29723077 3.09615385,7 C3.09615385,6.70276923 3.33738462,6.46153846 3.63461538,6.46153846 L6.46153846,6.46153846 L6.46153846,3.76923077 C6.46153846,3.472 6.70276923,3.23076923 7,3.23076923 C7.29723077,3.23076923 7.53846154,3.472 7.53846154,3.76923077 L7.53846154,6.46153846 L10.3653846,6.46153846 C10.6626154,6.46153846 10.9038462,6.70276923 10.9038462,7 C10.9038462,7.29723077 10.6626154,7.53846154 10.3653846,7.53846154 Z" id="Add"></path>
                        </g>
                    </g>
                </g>
            </g>
        </g>
    </g>
</svg>