<?xml version="1.0" encoding="UTF-8"?>
<svg width="25px" height="19px" viewBox="0 0 25 19" version="1.1" xmlns="http://www.w3.org/2000/svg" xmlns:xlink="http://www.w3.org/1999/xlink">
    <!-- Generator: sketchtool 63.1 (101010) - https://sketch.com -->
    <title>6B0279F2-55B2-4F6B-896B-13EF3C9B2979</title>
    <desc>Created with sketchtool.</desc>
    <g id="Homepage-&amp;-Cubicle" stroke="none" stroke-width="1" fill="none" fill-rule="evenodd" opacity="0.9">
        <g id="Phase-1" transform="translate(-661.000000, -195.000000)">
            <g id="computer-(1)-+-computer-(1)-copy-+-TOTAL-SEATS-+-45-Mask-Copy-Copy" transform="translate(636.000000, 180.000000)">
                <g id="Group-16" transform="translate(25.000000, 15.000000)">
                    <g id="Available-Seats-1">
                        <path d="M13.6502599,8.21451659 C13.4733559,8.21451659 13.3297817,8.07436984 13.3297817,7.90168903 C13.3297817,7.72900821 13.4733559,7.58886146 13.6502599,7.58886146 L19.8758702,7.58886146 C19.8117745,7.79689179 19.7505632,8.00554778 19.6899928,8.21451659 L13.6502599,8.21451659 Z M21.9826941,17.9121711 C21.9826941,18.0848519 21.8391198,18.2249986 21.6622159,18.2249986 L13.3297817,18.2249986 C13.1528777,18.2249986 13.0093034,18.0848519 13.0093034,17.9121711 C13.0093034,17.7394903 13.1528777,17.5993435 13.3297817,17.5993435 L21.6622159,17.5993435 C21.8391198,17.5993435 21.9826941,17.7394903 21.9826941,17.9121711 Z M19.0983899,14.1582403 C19.0983899,14.3309211 18.9548157,14.4710679 18.7779117,14.4710679 L18.1369552,14.4710679 C17.9597308,14.4710679 17.816477,14.6109018 17.816477,14.7838954 L17.816477,16.0352057 C17.816477,16.2081993 17.9597308,16.3480333 18.1369552,16.3480333 L18.7779117,16.3480333 C18.9548157,16.3480333 19.0983899,16.48818 19.0983899,16.6608608 L19.0983899,16.9736884 L15.8936076,16.9736884 L15.8936076,16.6608608 C15.8936076,16.48818 16.0371818,16.3480333 16.2140858,16.3480333 L16.8550423,16.3480333 C17.0322667,16.3480333 17.1755205,16.2081993 17.1755205,16.0352057 L17.1755205,14.7838954 C17.1755205,14.6109018 17.0322667,14.4710679 16.8550423,14.4710679 L16.2140858,14.4710679 C16.0371818,14.4710679 15.8936076,14.3309211 15.8936076,14.1582403 L15.8936076,13.8454127 L19.0983899,13.8454127 L19.0983899,14.1582403 Z M24.7202192,1.81594159 L24.6205505,2.17225219 C24.149127,3.85964407 23.8039719,5.59458574 23.5950201,7.33046589 L23.5793167,7.46185347 C23.3735696,9.16613804 23.0348241,10.8707354 22.5717331,12.5284087 C22.4582838,12.9353974 22.0769147,13.2197576 21.6442691,13.2197576 L11.7273905,13.2197576 C10.843832,13.2197576 10.1249993,12.5180854 10.1249993,11.6556198 C10.1249993,10.7931542 10.843832,10.091482 11.7273905,10.091482 C11.9296122,10.091482 12.1353593,10.1002411 12.3391834,10.1174467 L19.1269125,10.693675 C19.1080043,10.9092132 19.0983899,11.1260027 19.0983899,11.3427922 L19.7393464,11.3427922 C19.7393464,10.7471686 19.8181841,10.1524834 19.9732955,9.57625498 L20.0973206,9.11608563 C20.909733,6.10355619 22.0830038,3.18205956 23.5847648,0.432930928 C23.7036622,0.216141426 23.9340861,0.0809999185 24.185982,0.0809999185 C24.5615825,0.0809999185 24.8669982,0.379124587 24.8669982,0.745758493 C24.8669982,1.10707433 24.8176446,1.46713886 24.7202192,1.81594159 Z" id="Shape" fill="#69C490" fill-rule="nonzero"></path>
                        <g id="Group-14" transform="translate(0.000000, 6.317999)">
                            <line x1="12.7574991" y1="0.28349998" x2="0.28349998" y2="0.28349998" id="Line" stroke="#69C490" stroke-width="0.56699996" stroke-linecap="square"></line>
                            <rect id="Rectangle" fill="#69C490" x="4.85999974" y="0.567000153" width="3.23999983" height="11.6999997"></rect>
                        </g>
                    </g>
                </g>
            </g>
        </g>
    </g>
</svg>