<?xml version="1.0" encoding="UTF-8"?>
<svg width="398px" height="354px" viewBox="0 0 398 354" version="1.1" xmlns="http://www.w3.org/2000/svg" xmlns:xlink="http://www.w3.org/1999/xlink">
    <!-- Generator: sketchtool 57.1 (101010) - https://sketch.com -->
    <title>FB572251-BCAB-4297-9A74-52B585DA8F7A</title>
    <desc>Created with sketchtool.</desc>
    <defs>
        <linearGradient x1="100%" y1="-8.83670006%" x2="18.8146052%" y2="97.3185646%" id="linearGradient-1">
            <stop stop-color="#E68A89" stop-opacity="0.9" offset="0%"></stop>
            <stop stop-color="#D15C5B" stop-opacity="0.9" offset="100%"></stop>
        </linearGradient>
        <linearGradient x1="92.1332585%" y1="10.2196813%" x2="9.00707616%" y2="97.3185646%" id="linearGradient-2">
            <stop stop-color="#94DFB9" offset="0%"></stop>
            <stop stop-color="#5BBC83" offset="100%"></stop>
        </linearGradient>
        <linearGradient x1="91.8845159%" y1="-12.1708421%" x2="23.8762966%" y2="100%" id="linearGradient-3">
            <stop stop-color="#E68A89" stop-opacity="0.9" offset="0%"></stop>
            <stop stop-color="#D15C5B" stop-opacity="0.9" offset="100%"></stop>
        </linearGradient>
    </defs>
    <g id="Homepage-&amp;-Cubicle" stroke="none" stroke-width="1" fill="none" fill-rule="evenodd">
        <g id="Phase-1" transform="translate(-883.000000, -284.000000)">
            <g id="Group-8" transform="translate(854.000000, 135.000000)">
                <g id="Group-2-+-Group-4-+-Group-4-Copy-+-Group-2-Copy-+-Oval-+-Oval-Copy-2-+-Oval-Copy-+-Oval-Copy-3-+-S1-+-S3-+-S4-+-S2-Mask">
                    <g id="Phase-1-SVG" transform="translate(29.000000, 149.000000)">
                        <g id="C1" transform="translate(265.000000, 2.000000)">
                            <g id="C1_4" transform="translate(27.000000, 87.166667) scale(1, -1) translate(-27.000000, -87.166667) translate(0.000000, 57.666667)" stroke="#05070A" stroke-width="2.11200027">
                                <rect id="Rectangle" x="34.2287234" y="0" width="19.3085106" height="17.6767677"></rect>
                                <polygon id="Rectangle-Copy" transform="translate(8.952128, 45.959596) rotate(90.000000) translate(-8.952128, -45.959596) " points="-3.77514474 37.1830005 21.6794007 37.1830005 21.6794007 54.736192 -3.77514474 54.736192"></polygon>
                                <path d="M0.175531915,33.9393939 L17.7287234,33.9393939 C17.6117021,23.0976431 23.3457447,17.6767677 34.9308511,17.6767677 C34.9308511,12.5048132 34.9308511,6.6555099 34.9308511,0.128857648 L4.39953245,0.128857648 C2.06668137,0.128857648 0.175531915,2.0200071 0.175531915,4.35285818 L0.175531915,33.9393939 L0.175531915,33.9393939 Z" id="Seat" fill-opacity="0.4" fill="url(#linearGradient-1)"></path>
                            </g>
                            <g id="C1_3" transform="translate(104.824468, 87.166667) scale(-1, -1) translate(-104.824468, -87.166667) translate(77.824468, 57.666667)" stroke="#05070A" stroke-width="2.11200027">
                                <rect id="Rectangle" x="34.2287234" y="0" width="19.3085106" height="17.6767677"></rect>
                                <polygon id="Rectangle-Copy" transform="translate(8.952128, 45.959596) rotate(90.000000) translate(-8.952128, -45.959596) " points="-3.77514474 37.1830005 21.6794007 37.1830005 21.6794007 54.736192 -3.77514474 54.736192"></polygon>
                                <path d="M0.175531915,33.9393939 L17.7287234,33.9393939 C17.6117021,23.0976431 23.3457447,17.6767677 34.9308511,17.6767677 C34.9308511,12.5048132 34.9308511,6.6555099 34.9308511,0.128857648 L4.39953245,0.128857648 C2.06668137,0.128857648 0.175531915,2.0200071 0.175531915,4.35285818 L0.175531915,33.9393939 L0.175531915,33.9393939 Z" id="Seat" fill-opacity="0.4" fill="url(#linearGradient-1)"></path>
                            </g>
                            <g id="C1_2" transform="translate(104.824468, 29.500000) scale(-1, 1) translate(-104.824468, -29.500000) translate(77.824468, 0.000000)" stroke="#05070A" stroke-width="2.11200027">
                                <rect id="Rectangle" x="34.2287234" y="0" width="19.3085106" height="17.6767677"></rect>
                                <polygon id="Rectangle-Copy" transform="translate(8.952128, 45.959596) rotate(90.000000) translate(-8.952128, -45.959596) " points="-3.77514474 37.1830005 21.6794007 37.1830005 21.6794007 54.736192 -3.77514474 54.736192"></polygon>
                                <path d="M0.175531915,33.9393939 L17.7287234,33.9393939 C17.6117021,23.0976431 23.3457447,17.6767677 34.9308511,17.6767677 C34.9308511,12.5048132 34.9308511,6.6555099 34.9308511,0.128857648 L4.39953245,0.128857648 C2.06668137,0.128857648 0.175531915,2.0200071 0.175531915,4.35285818 L0.175531915,33.9393939 L0.175531915,33.9393939 Z" id="Seat" fill-opacity="0.4" fill="url(#linearGradient-1)"></path>
                            </g>
                            <g id="C1_1" stroke="#05070A" stroke-width="2.11200027">
                                <rect id="Rectangle" x="34.2287234" y="0" width="19.3085106" height="17.6767677"></rect>
                                <polygon id="Rectangle-Copy" transform="translate(8.952128, 45.959596) rotate(90.000000) translate(-8.952128, -45.959596) " points="-3.77514474 37.1830005 21.6794007 37.1830005 21.6794007 54.736192 -3.77514474 54.736192"></polygon>
                                <path d="M0.175531915,33.9393939 L17.7287234,33.9393939 C17.6117021,23.0976431 23.3457447,17.6767677 34.9308511,17.6767677 C34.9308511,12.5048132 34.9308511,6.6555099 34.9308511,0.128857648 L4.39953245,0.128857648 C2.06668137,0.128857648 0.175531915,2.0200071 0.175531915,4.35285818 L0.175531915,33.9393939 L0.175531915,33.9393939 Z" id="Seat" fill="url(#linearGradient-2)"></path>
                            </g>
                            <text font-family="Helvetica" font-size="20" font-weight="normal" fill="#C6D0DC">
                                <tspan x="54" y="62">C1</tspan>
                            </text>
                        </g>
                        <g id="C2" transform="translate(265.000000, 118.666667)">
                            <g id="C2_4" transform="translate(27.000000, 87.166667) scale(1, -1) translate(-27.000000, -87.166667) translate(0.000000, 57.666667)" stroke="#05070A" stroke-width="2.11200027">
                                <rect id="Rectangle" x="34.2287234" y="0" width="19.3085106" height="17.6767677"></rect>
                                <polygon id="Rectangle-Copy" transform="translate(8.952128, 45.959596) rotate(90.000000) translate(-8.952128, -45.959596) " points="-3.77514474 37.1830005 21.6794007 37.1830005 21.6794007 54.736192 -3.77514474 54.736192"></polygon>
                                <path d="M0.175531915,33.9393939 L17.7287234,33.9393939 C17.6117021,23.0976431 23.3457447,17.6767677 34.9308511,17.6767677 C34.9308511,12.5048132 34.9308511,6.6555099 34.9308511,0.128857648 L4.39953245,0.128857648 C2.06668137,0.128857648 0.175531915,2.0200071 0.175531915,4.35285818 L0.175531915,33.9393939 L0.175531915,33.9393939 Z" id="Seat" fill-opacity="0.4" fill="url(#linearGradient-1)"></path>
                            </g>
                            <text font-family="Helvetica" font-size="20" font-weight="normal" fill="#C6D0DC">
                                <tspan x="54" y="61.3333333">C2</tspan>
                            </text>
                            <g id="C2_3" transform="translate(104.824468, 87.166667) scale(-1, -1) translate(-104.824468, -87.166667) translate(77.824468, 57.666667)" stroke="#05070A" stroke-width="2.11200027">
                                <rect id="Rectangle" x="34.2287234" y="0" width="19.3085106" height="17.6767677"></rect>
                                <polygon id="Rectangle-Copy" transform="translate(8.952128, 45.959596) rotate(90.000000) translate(-8.952128, -45.959596) " points="-3.77514474 37.1830005 21.6794007 37.1830005 21.6794007 54.736192 -3.77514474 54.736192"></polygon>
                                <path d="M0.175531915,33.9393939 L17.7287234,33.9393939 C17.6117021,23.0976431 23.3457447,17.6767677 34.9308511,17.6767677 C34.9308511,12.5048132 34.9308511,6.6555099 34.9308511,0.128857648 L4.39953245,0.128857648 C2.06668137,0.128857648 0.175531915,2.0200071 0.175531915,4.35285818 L0.175531915,33.9393939 L0.175531915,33.9393939 Z" id="Seat" fill-opacity="0.4" fill="url(#linearGradient-1)"></path>
                            </g>
                            <g id="C2_2" transform="translate(104.824468, 29.500000) scale(-1, 1) translate(-104.824468, -29.500000) translate(77.824468, 0.000000)" stroke="#05070A" stroke-width="2.11200027">
                                <rect id="Rectangle" x="34.2287234" y="0" width="19.3085106" height="17.6767677"></rect>
                                <polygon id="Rectangle-Copy" transform="translate(8.952128, 45.959596) rotate(90.000000) translate(-8.952128, -45.959596) " points="-3.77514474 37.1830005 21.6794007 37.1830005 21.6794007 54.736192 -3.77514474 54.736192"></polygon>
                                <path d="M0.175531915,33.9393939 L17.7287234,33.9393939 C17.6117021,23.0976431 23.3457447,17.6767677 34.9308511,17.6767677 C34.9308511,12.5048132 34.9308511,6.6555099 34.9308511,0.128857648 L4.39953245,0.128857648 C2.06668137,0.128857648 0.175531915,2.0200071 0.175531915,4.35285818 L0.175531915,33.9393939 L0.175531915,33.9393939 Z" id="Seat" fill-opacity="0.4" fill="url(#linearGradient-1)"></path>
                            </g>
                            <g id="C2_1" stroke="#05070A" stroke-width="2.11200027">
                                <rect id="Rectangle" x="34.2287234" y="0" width="19.3085106" height="17.6767677"></rect>
                                <polygon id="Rectangle-Copy" transform="translate(8.952128, 45.959596) rotate(90.000000) translate(-8.952128, -45.959596) " points="-3.77514474 37.1830005 21.6794007 37.1830005 21.6794007 54.736192 -3.77514474 54.736192"></polygon>
                                <path d="M0.175531915,33.9393939 L17.7287234,33.9393939 C17.6117021,23.0976431 23.3457447,17.6767677 34.9308511,17.6767677 C34.9308511,12.5048132 34.9308511,6.6555099 34.9308511,0.128857648 L4.39953245,0.128857648 C2.06668137,0.128857648 0.175531915,2.0200071 0.175531915,4.35285818 L0.175531915,33.9393939 L0.175531915,33.9393939 Z" id="Seat" fill="url(#linearGradient-2)"></path>
                            </g>
                        </g>
                        <g id="C3" transform="translate(265.000000, 235.333333)">
                            <g id="C3_4" transform="translate(27.000000, 87.166667) scale(1, -1) translate(-27.000000, -87.166667) translate(0.000000, 57.666667)" stroke="#05070A" stroke-width="2.11200027">
                                <rect id="Rectangle" x="34.2287234" y="0" width="19.3085106" height="17.6767677"></rect>
                                <polygon id="Rectangle-Copy" transform="translate(8.952128, 45.959596) rotate(90.000000) translate(-8.952128, -45.959596) " points="-3.77514474 37.1830005 21.6794007 37.1830005 21.6794007 54.736192 -3.77514474 54.736192"></polygon>
                                <path d="M0.175531915,33.9393939 L17.7287234,33.9393939 C17.6117021,23.0976431 23.3457447,17.6767677 34.9308511,17.6767677 C34.9308511,12.5048132 34.9308511,6.6555099 34.9308511,0.128857648 L4.39953245,0.128857648 C2.06668137,0.128857648 0.175531915,2.0200071 0.175531915,4.35285818 L0.175531915,33.9393939 L0.175531915,33.9393939 Z" id="Seat" fill-opacity="0.4" fill="url(#linearGradient-1)"></path>
                            </g>
                            <text font-family="Helvetica" font-size="20" font-weight="normal" fill="#C6D0DC">
                                <tspan x="54" y="61.6666667">C3</tspan>
                            </text>
                            <g id="C3_3" transform="translate(104.824468, 87.166667) scale(-1, -1) translate(-104.824468, -87.166667) translate(77.824468, 57.666667)" stroke="#05070A" stroke-width="2.11200027">
                                <rect id="Rectangle" x="34.2287234" y="0" width="19.3085106" height="17.6767677"></rect>
                                <polygon id="Rectangle-Copy" transform="translate(8.952128, 45.959596) rotate(90.000000) translate(-8.952128, -45.959596) " points="-3.77514474 37.1830005 21.6794007 37.1830005 21.6794007 54.736192 -3.77514474 54.736192"></polygon>
                                <path d="M0.175531915,33.9393939 L17.7287234,33.9393939 C17.6117021,23.0976431 23.3457447,17.6767677 34.9308511,17.6767677 C34.9308511,12.5048132 34.9308511,6.6555099 34.9308511,0.128857648 L4.39953245,0.128857648 C2.06668137,0.128857648 0.175531915,2.0200071 0.175531915,4.35285818 L0.175531915,33.9393939 L0.175531915,33.9393939 Z" id="Seat" fill-opacity="0.4" fill="url(#linearGradient-1)"></path>
                            </g>
                            <g id="C3_2" transform="translate(104.824468, 29.500000) scale(-1, 1) translate(-104.824468, -29.500000) translate(77.824468, 0.000000)" stroke="#05070A" stroke-width="2.11200027">
                                <rect id="Rectangle" x="34.2287234" y="0" width="19.3085106" height="17.6767677"></rect>
                                <polygon id="Rectangle-Copy" transform="translate(8.952128, 45.959596) rotate(90.000000) translate(-8.952128, -45.959596) " points="-3.77514474 37.1830005 21.6794007 37.1830005 21.6794007 54.736192 -3.77514474 54.736192"></polygon>
                                <path d="M0.175531915,33.9393939 L17.7287234,33.9393939 C17.6117021,23.0976431 23.3457447,17.6767677 34.9308511,17.6767677 C34.9308511,12.5048132 34.9308511,6.6555099 34.9308511,0.128857648 L4.39953245,0.128857648 C2.06668137,0.128857648 0.175531915,2.0200071 0.175531915,4.35285818 L0.175531915,33.9393939 L0.175531915,33.9393939 Z" id="Seat" fill-opacity="0.4" fill="url(#linearGradient-1)"></path>
                            </g>
                            <g id="C3_1" stroke="#05070A" stroke-width="2.11200027">
                                <rect id="Rectangle" x="34.2287234" y="0" width="19.3085106" height="17.6767677"></rect>
                                <polygon id="Rectangle-Copy" transform="translate(8.952128, 45.959596) rotate(90.000000) translate(-8.952128, -45.959596) " points="-3.77514474 37.1830005 21.6794007 37.1830005 21.6794007 54.736192 -3.77514474 54.736192"></polygon>
                                <path d="M0.175531915,33.9393939 L17.7287234,33.9393939 C17.6117021,23.0976431 23.3457447,17.6767677 34.9308511,17.6767677 C34.9308511,12.5048132 34.9308511,6.6555099 34.9308511,0.128857648 L4.39953245,0.128857648 C2.06668137,0.128857648 0.175531915,2.0200071 0.175531915,4.35285818 L0.175531915,33.9393939 L0.175531915,33.9393939 Z" id="Seat" fill="url(#linearGradient-2)"></path>
                            </g>
                        </g>
                        <g id="C4" transform="translate(133.000000, 2.000000)">
                            <g id="C4_4" transform="translate(27.000000, 87.166667) scale(1, -1) translate(-27.000000, -87.166667) translate(0.000000, 57.666667)" stroke="#05070A" stroke-width="2.11200027">
                                <rect id="Rectangle" x="34.2287234" y="0" width="19.3085106" height="17.6767677"></rect>
                                <polygon id="Rectangle-Copy" transform="translate(8.952128, 45.959596) rotate(90.000000) translate(-8.952128, -45.959596) " points="-3.77514474 37.1830005 21.6794007 37.1830005 21.6794007 54.736192 -3.77514474 54.736192"></polygon>
                                <path d="M0.175531915,33.9393939 L17.7287234,33.9393939 C17.6117021,23.0976431 23.3457447,17.6767677 34.9308511,17.6767677 C34.9308511,12.5048132 34.9308511,6.6555099 34.9308511,0.128857648 L4.39953245,0.128857648 C2.06668137,0.128857648 0.175531915,2.0200071 0.175531915,4.35285818 L0.175531915,33.9393939 L0.175531915,33.9393939 Z" id="Seat" fill-opacity="0.4" fill="url(#linearGradient-1)"></path>
                            </g>
                            <text font-family="Helvetica" font-size="20" font-weight="normal" fill="#C6D0DC">
                                <tspan x="51" y="61">C4</tspan>
                            </text>
                            <g id="C4_3" transform="translate(104.824468, 87.166667) scale(-1, -1) translate(-104.824468, -87.166667) translate(77.824468, 57.666667)" stroke="#05070A" stroke-width="2.11200027">
                                <rect id="Rectangle" x="34.2287234" y="0" width="19.3085106" height="17.6767677"></rect>
                                <polygon id="Rectangle-Copy" transform="translate(8.952128, 45.959596) rotate(90.000000) translate(-8.952128, -45.959596) " points="-3.77514474 37.1830005 21.6794007 37.1830005 21.6794007 54.736192 -3.77514474 54.736192"></polygon>
                                <path d="M0.175531915,33.9393939 L17.7287234,33.9393939 C17.6117021,23.0976431 23.3457447,17.6767677 34.9308511,17.6767677 C34.9308511,12.5048132 34.9308511,6.6555099 34.9308511,0.128857648 L4.39953245,0.128857648 C2.06668137,0.128857648 0.175531915,2.0200071 0.175531915,4.35285818 L0.175531915,33.9393939 L0.175531915,33.9393939 Z" id="Seat" fill-opacity="0.4" fill="url(#linearGradient-1)"></path>
                            </g>
                            <g id="C4_2" transform="translate(104.824468, 29.500000) scale(-1, 1) translate(-104.824468, -29.500000) translate(77.824468, 0.000000)" stroke="#05070A" stroke-width="2.11200027">
                                <rect id="Rectangle" x="34.2287234" y="0" width="19.3085106" height="17.6767677"></rect>
                                <polygon id="Rectangle-Copy" transform="translate(8.952128, 45.959596) rotate(90.000000) translate(-8.952128, -45.959596) " points="-3.77514474 37.1830005 21.6794007 37.1830005 21.6794007 54.736192 -3.77514474 54.736192"></polygon>
                                <path d="M0.175531915,33.9393939 L17.7287234,33.9393939 C17.6117021,23.0976431 23.3457447,17.6767677 34.9308511,17.6767677 C34.9308511,12.5048132 34.9308511,6.6555099 34.9308511,0.128857648 L4.39953245,0.128857648 C2.06668137,0.128857648 0.175531915,2.0200071 0.175531915,4.35285818 L0.175531915,33.9393939 L0.175531915,33.9393939 Z" id="Seat" fill-opacity="0.4" fill="url(#linearGradient-1)"></path>
                            </g>
                            <g id="C4_1" stroke="#05070A" stroke-width="2.11200027">
                                <rect id="Rectangle" x="34.2287234" y="0" width="19.3085106" height="17.6767677"></rect>
                                <polygon id="Rectangle-Copy" transform="translate(8.952128, 45.959596) rotate(90.000000) translate(-8.952128, -45.959596) " points="-3.77514474 37.1830005 21.6794007 37.1830005 21.6794007 54.736192 -3.77514474 54.736192"></polygon>
                                <path d="M0.175531915,33.9393939 L17.7287234,33.9393939 C17.6117021,23.0976431 23.3457447,17.6767677 34.9308511,17.6767677 C34.9308511,12.5048132 34.9308511,6.6555099 34.9308511,0.128857648 L4.39953245,0.128857648 C2.06668137,0.128857648 0.175531915,2.0200071 0.175531915,4.35285818 L0.175531915,33.9393939 L0.175531915,33.9393939 Z" id="Seat" fill="url(#linearGradient-2)"></path>
                            </g>
                        </g>
                        <g id="C5" transform="translate(133.000000, 118.666667)">
                            <text font-family="Helvetica" font-size="20" font-weight="normal" fill="#C6D0DC">
                                <tspan x="51" y="61.3333333">C5</tspan>
                            </text>
                            <g id="C5_4" transform="translate(27.000000, 87.166667) scale(1, -1) translate(-27.000000, -87.166667) translate(0.000000, 57.666667)" stroke="#05070A" stroke-width="2.11200027">
                                <rect id="Rectangle" x="34.2287234" y="0" width="19.3085106" height="17.6767677"></rect>
                                <polygon id="Rectangle-Copy" transform="translate(8.952128, 45.959596) rotate(90.000000) translate(-8.952128, -45.959596) " points="-3.77514474 37.1830005 21.6794007 37.1830005 21.6794007 54.736192 -3.77514474 54.736192"></polygon>
                                <path d="M0.175531915,33.9393939 L17.7287234,33.9393939 C17.6117021,23.0976431 23.3457447,17.6767677 34.9308511,17.6767677 C34.9308511,12.5048132 34.9308511,6.6555099 34.9308511,0.128857648 L4.39953245,0.128857648 C2.06668137,0.128857648 0.175531915,2.0200071 0.175531915,4.35285818 L0.175531915,33.9393939 L0.175531915,33.9393939 Z" id="Seat" fill-opacity="0.4" fill="url(#linearGradient-1)"></path>
                            </g>
                            <g id="C5_3" transform="translate(104.824468, 87.166667) scale(-1, -1) translate(-104.824468, -87.166667) translate(77.824468, 57.666667)" stroke="#05070A" stroke-width="2.11200027">
                                <rect id="Rectangle" x="34.2287234" y="0" width="19.3085106" height="17.6767677"></rect>
                                <polygon id="Rectangle-Copy" transform="translate(8.952128, 45.959596) rotate(90.000000) translate(-8.952128, -45.959596) " points="-3.77514474 37.1830005 21.6794007 37.1830005 21.6794007 54.736192 -3.77514474 54.736192"></polygon>
                                <path d="M0.175531915,33.9393939 L17.7287234,33.9393939 C17.6117021,23.0976431 23.3457447,17.6767677 34.9308511,17.6767677 C34.9308511,12.5048132 34.9308511,6.6555099 34.9308511,0.128857648 L4.39953245,0.128857648 C2.06668137,0.128857648 0.175531915,2.0200071 0.175531915,4.35285818 L0.175531915,33.9393939 L0.175531915,33.9393939 Z" id="Seat" fill-opacity="0.4" fill="url(#linearGradient-1)"></path>
                            </g>
                            <g id="C5_2" transform="translate(104.824468, 29.500000) scale(-1, 1) translate(-104.824468, -29.500000) translate(77.824468, 0.000000)" stroke="#05070A" stroke-width="2.11200027">
                                <rect id="Rectangle" x="34.2287234" y="0" width="19.3085106" height="17.6767677"></rect>
                                <polygon id="Rectangle-Copy" transform="translate(8.952128, 45.959596) rotate(90.000000) translate(-8.952128, -45.959596) " points="-3.77514474 37.1830005 21.6794007 37.1830005 21.6794007 54.736192 -3.77514474 54.736192"></polygon>
                                <path d="M0.175531915,33.9393939 L17.7287234,33.9393939 C17.6117021,23.0976431 23.3457447,17.6767677 34.9308511,17.6767677 C34.9308511,12.5048132 34.9308511,6.6555099 34.9308511,0.128857648 L4.39953245,0.128857648 C2.06668137,0.128857648 0.175531915,2.0200071 0.175531915,4.35285818 L0.175531915,33.9393939 L0.175531915,33.9393939 Z" id="Seat" fill="url(#linearGradient-2)"></path>
                            </g>
                            <g id="C5_1" stroke="#05070A" stroke-width="2.11200027">
                                <rect id="Rectangle" x="34.2287234" y="0" width="19.3085106" height="17.6767677"></rect>
                                <polygon id="Rectangle-Copy" transform="translate(8.952128, 45.959596) rotate(90.000000) translate(-8.952128, -45.959596) " points="-3.77514474 37.1830005 21.6794007 37.1830005 21.6794007 54.736192 -3.77514474 54.736192"></polygon>
                                <path d="M0.175531915,33.9393939 L17.7287234,33.9393939 C17.6117021,23.0976431 23.3457447,17.6767677 34.9308511,17.6767677 C34.9308511,12.5048132 34.9308511,6.6555099 34.9308511,0.128857648 L4.39953245,0.128857648 C2.06668137,0.128857648 0.175531915,2.0200071 0.175531915,4.35285818 L0.175531915,33.9393939 L0.175531915,33.9393939 Z" id="Seat" fill-opacity="0.4" fill="url(#linearGradient-1)"></path>
                            </g>
                        </g>
                        <g id="C6" transform="translate(133.000000, 235.333333)">
                            <g id="C6_4" transform="translate(27.000000, 87.166667) scale(1, -1) translate(-27.000000, -87.166667) translate(0.000000, 57.666667)" stroke="#05070A" stroke-width="2.11200027">
                                <rect id="Rectangle" x="34.2287234" y="0" width="19.3085106" height="17.6767677"></rect>
                                <polygon id="Rectangle-Copy" transform="translate(8.952128, 45.959596) rotate(90.000000) translate(-8.952128, -45.959596) " points="-3.77514474 37.1830005 21.6794007 37.1830005 21.6794007 54.736192 -3.77514474 54.736192"></polygon>
                                <path d="M0.175531915,33.9393939 L17.7287234,33.9393939 C17.6117021,23.0976431 23.3457447,17.6767677 34.9308511,17.6767677 C34.9308511,12.5048132 34.9308511,6.6555099 34.9308511,0.128857648 L4.39953245,0.128857648 C2.06668137,0.128857648 0.175531915,2.0200071 0.175531915,4.35285818 L0.175531915,33.9393939 L0.175531915,33.9393939 Z" id="Seat" fill-opacity="0.4" fill="url(#linearGradient-1)"></path>
                            </g>
                            <text font-family="Helvetica" font-size="20" font-weight="normal" fill="#C6D0DC">
                                <tspan x="51" y="61.6666667">C6</tspan>
                            </text>
                            <g id="C6_3" transform="translate(104.824468, 87.166667) scale(-1, -1) translate(-104.824468, -87.166667) translate(77.824468, 57.666667)" stroke="#05070A" stroke-width="2.11200027">
                                <rect id="Rectangle" x="34.2287234" y="0" width="19.3085106" height="17.6767677"></rect>
                                <polygon id="Rectangle-Copy" transform="translate(8.952128, 45.959596) rotate(90.000000) translate(-8.952128, -45.959596) " points="-3.77514474 37.1830005 21.6794007 37.1830005 21.6794007 54.736192 -3.77514474 54.736192"></polygon>
                                <path d="M0.175531915,33.9393939 L17.7287234,33.9393939 C17.6117021,23.0976431 23.3457447,17.6767677 34.9308511,17.6767677 C34.9308511,12.5048132 34.9308511,6.6555099 34.9308511,0.128857648 L4.39953245,0.128857648 C2.06668137,0.128857648 0.175531915,2.0200071 0.175531915,4.35285818 L0.175531915,33.9393939 L0.175531915,33.9393939 Z" id="Seat" fill-opacity="0.4" fill="url(#linearGradient-1)"></path>
                            </g>
                            <g id="C6_2" transform="translate(104.824468, 29.500000) scale(-1, 1) translate(-104.824468, -29.500000) translate(77.824468, 0.000000)" stroke="#05070A" stroke-width="2.11200027">
                                <rect id="Rectangle" x="34.2287234" y="0" width="19.3085106" height="17.6767677"></rect>
                                <polygon id="Rectangle-Copy" transform="translate(8.952128, 45.959596) rotate(90.000000) translate(-8.952128, -45.959596) " points="-3.77514474 37.1830005 21.6794007 37.1830005 21.6794007 54.736192 -3.77514474 54.736192"></polygon>
                                <path d="M0.175531915,33.9393939 L17.7287234,33.9393939 C17.6117021,23.0976431 23.3457447,17.6767677 34.9308511,17.6767677 C34.9308511,12.5048132 34.9308511,6.6555099 34.9308511,0.128857648 L4.39953245,0.128857648 C2.06668137,0.128857648 0.175531915,2.0200071 0.175531915,4.35285818 L0.175531915,33.9393939 L0.175531915,33.9393939 Z" id="Seat" fill-opacity="0.4" fill="url(#linearGradient-1)"></path>
                            </g>
                            <g id="C6_1" stroke="#05070A" stroke-width="2.11200027">
                                <rect id="Rectangle" x="34.2287234" y="0" width="19.3085106" height="17.6767677"></rect>
                                <polygon id="Rectangle-Copy" transform="translate(8.952128, 45.959596) rotate(90.000000) translate(-8.952128, -45.959596) " points="-3.77514474 37.1830005 21.6794007 37.1830005 21.6794007 54.736192 -3.77514474 54.736192"></polygon>
                                <path d="M0.175531915,33.9393939 L17.7287234,33.9393939 C17.6117021,23.0976431 23.3457447,17.6767677 34.9308511,17.6767677 C34.9308511,12.5048132 34.9308511,6.6555099 34.9308511,0.128857648 L4.39953245,0.128857648 C2.06668137,0.128857648 0.175531915,2.0200071 0.175531915,4.35285818 L0.175531915,33.9393939 L0.175531915,33.9393939 Z" id="Seat" fill-opacity="0.4" fill="url(#linearGradient-1)"></path>
                            </g>
                        </g>
                        <g id="C7" transform="translate(1.000000, 2.000000)">
                            <g id="C7_4" transform="translate(27.000000, 87.166667) scale(1, -1) translate(-27.000000, -87.166667) translate(0.000000, 57.666667)" stroke="#05070A" stroke-width="2.11200027">
                                <rect id="Rectangle" x="34.2287234" y="0" width="19.3085106" height="17.6767677"></rect>
                                <polygon id="Rectangle-Copy" transform="translate(8.952128, 45.959596) rotate(90.000000) translate(-8.952128, -45.959596) " points="-3.77514474 37.1830005 21.6794007 37.1830005 21.6794007 54.736192 -3.77514474 54.736192"></polygon>
                                <path d="M0.175531915,33.9393939 L17.7287234,33.9393939 C17.6117021,23.0976431 23.3457447,17.6767677 34.9308511,17.6767677 C34.9308511,12.5048132 34.9308511,6.6555099 34.9308511,0.128857648 L4.39953245,0.128857648 C2.06668137,0.128857648 0.175531915,2.0200071 0.175531915,4.35285818 L0.175531915,33.9393939 L0.175531915,33.9393939 Z" id="Seat" fill-opacity="0.4" fill="url(#linearGradient-1)"></path>
                            </g>
                            <text font-family="Helvetica" font-size="20" font-weight="normal" fill="#C6D0DC">
                                <tspan x="51" y="61">C7</tspan>
                            </text>
                            <g id="C7_3" transform="translate(104.824468, 87.166667) scale(-1, -1) translate(-104.824468, -87.166667) translate(77.824468, 57.666667)" stroke="#05070A" stroke-width="2.11200027">
                                <rect id="Rectangle" x="34.2287234" y="0" width="19.3085106" height="17.6767677"></rect>
                                <polygon id="Rectangle-Copy" transform="translate(8.952128, 45.959596) rotate(90.000000) translate(-8.952128, -45.959596) " points="-3.77514474 37.1830005 21.6794007 37.1830005 21.6794007 54.736192 -3.77514474 54.736192"></polygon>
                                <path d="M0.175531915,33.9393939 L17.7287234,33.9393939 C17.6117021,23.0976431 23.3457447,17.6767677 34.9308511,17.6767677 C34.9308511,12.5048132 34.9308511,6.6555099 34.9308511,0.128857648 L4.39953245,0.128857648 C2.06668137,0.128857648 0.175531915,2.0200071 0.175531915,4.35285818 L0.175531915,33.9393939 L0.175531915,33.9393939 Z" id="Seat" fill-opacity="0.4" fill="url(#linearGradient-1)"></path>
                            </g>
                            <g id="C7_2" transform="translate(104.824468, 29.500000) scale(-1, 1) translate(-104.824468, -29.500000) translate(77.824468, 0.000000)" stroke="#05070A" stroke-width="2.11200027">
                                <rect id="Rectangle" x="34.2287234" y="0" width="19.3085106" height="17.6767677"></rect>
                                <polygon id="Rectangle-Copy" transform="translate(8.952128, 45.959596) rotate(90.000000) translate(-8.952128, -45.959596) " points="-3.77514474 37.1830005 21.6794007 37.1830005 21.6794007 54.736192 -3.77514474 54.736192"></polygon>
                                <path d="M0.175531915,33.9393939 L17.7287234,33.9393939 C17.6117021,23.0976431 23.3457447,17.6767677 34.9308511,17.6767677 C34.9308511,12.5048132 34.9308511,6.6555099 34.9308511,0.128857648 L4.39953245,0.128857648 C2.06668137,0.128857648 0.175531915,2.0200071 0.175531915,4.35285818 L0.175531915,33.9393939 L0.175531915,33.9393939 Z" id="Seat" fill-opacity="0.4" fill="url(#linearGradient-1)"></path>
                            </g>
                            <g id="C7_1" stroke="#05070A" stroke-width="2.11200027">
                                <rect id="Rectangle" x="34.2287234" y="0" width="19.3085106" height="17.6767677"></rect>
                                <polygon id="Rectangle-Copy" transform="translate(8.952128, 45.959596) rotate(90.000000) translate(-8.952128, -45.959596) " points="-3.77514474 37.1830005 21.6794007 37.1830005 21.6794007 54.736192 -3.77514474 54.736192"></polygon>
                                <path d="M0.175531915,33.9393939 L17.7287234,33.9393939 C17.6117021,23.0976431 23.3457447,17.6767677 34.9308511,17.6767677 C34.9308511,12.5048132 34.9308511,6.6555099 34.9308511,0.128857648 L4.39953245,0.128857648 C2.06668137,0.128857648 0.175531915,2.0200071 0.175531915,4.35285818 L0.175531915,33.9393939 L0.175531915,33.9393939 Z" id="Seat" fill-opacity="0.4" fill="url(#linearGradient-1)"></path>
                            </g>
                        </g>
                        <g id="C8" transform="translate(1.000000, 118.666667)">
                            <g id="C8_4" transform="translate(27.000000, 87.166667) scale(1, -1) translate(-27.000000, -87.166667) translate(0.000000, 57.666667)" stroke="#05070A" stroke-width="2.11200027">
                                <rect id="Rectangle" x="34.2287234" y="0" width="19.3085106" height="17.6767677"></rect>
                                <polygon id="Rectangle-Copy" transform="translate(8.952128, 45.959596) rotate(90.000000) translate(-8.952128, -45.959596) " points="-3.77514474 37.1830005 21.6794007 37.1830005 21.6794007 54.736192 -3.77514474 54.736192"></polygon>
                                <path d="M0.175531915,33.9393939 L17.7287234,33.9393939 C17.6117021,23.0976431 23.3457447,17.6767677 34.9308511,17.6767677 C34.9308511,12.5048132 34.9308511,6.6555099 34.9308511,0.128857648 L4.39953245,0.128857648 C2.06668137,0.128857648 0.175531915,2.0200071 0.175531915,4.35285818 L0.175531915,33.9393939 L0.175531915,33.9393939 Z" id="Seat" fill-opacity="0.4" fill="url(#linearGradient-1)"></path>
                            </g>
                            <text font-family="Helvetica" font-size="20" font-weight="normal" fill="#C6D0DC">
                                <tspan x="51" y="61.3333333">C8</tspan>
                            </text>
                            <g id="C8_3" transform="translate(104.824468, 87.166667) scale(-1, -1) translate(-104.824468, -87.166667) translate(77.824468, 57.666667)" stroke="#05070A" stroke-width="2.11200027">
                                <rect id="Rectangle" x="34.2287234" y="0" width="19.3085106" height="17.6767677"></rect>
                                <polygon id="Rectangle-Copy" transform="translate(8.952128, 45.959596) rotate(90.000000) translate(-8.952128, -45.959596) " points="-3.77514474 37.1830005 21.6794007 37.1830005 21.6794007 54.736192 -3.77514474 54.736192"></polygon>
                                <path d="M0.175531915,33.9393939 L17.7287234,33.9393939 C17.6117021,23.0976431 23.3457447,17.6767677 34.9308511,17.6767677 C34.9308511,12.5048132 34.9308511,6.6555099 34.9308511,0.128857648 L4.39953245,0.128857648 C2.06668137,0.128857648 0.175531915,2.0200071 0.175531915,4.35285818 L0.175531915,33.9393939 L0.175531915,33.9393939 Z" id="Seat"></path>
                            </g>
                            <g id="C8_2" transform="translate(104.824468, 29.500000) scale(-1, 1) translate(-104.824468, -29.500000) translate(77.824468, 0.000000)" stroke="#05070A" stroke-width="2.11200027">
                                <rect id="Rectangle" x="34.2287234" y="0" width="19.3085106" height="17.6767677"></rect>
                                <polygon id="Rectangle-Copy" transform="translate(8.952128, 45.959596) rotate(90.000000) translate(-8.952128, -45.959596) " points="-3.77514474 37.1830005 21.6794007 37.1830005 21.6794007 54.736192 -3.77514474 54.736192"></polygon>
                                <path d="M0.175531915,33.9393939 L17.7287234,33.9393939 C17.6117021,23.0976431 23.3457447,17.6767677 34.9308511,17.6767677 C34.9308511,12.5048132 34.9308511,6.6555099 34.9308511,0.128857648 L4.39953245,0.128857648 C2.06668137,0.128857648 0.175531915,2.0200071 0.175531915,4.35285818 L0.175531915,33.9393939 L0.175531915,33.9393939 Z" id="Seat" fill-opacity="0.4" fill="url(#linearGradient-1)"></path>
                            </g>
                            <g id="C8_1" stroke="#05070A" stroke-width="2.11200027">
                                <rect id="Rectangle" x="34.2287234" y="0" width="19.3085106" height="17.6767677"></rect>
                                <polygon id="Rectangle-Copy" transform="translate(8.952128, 45.959596) rotate(90.000000) translate(-8.952128, -45.959596) " points="-3.77514474 37.1830005 21.6794007 37.1830005 21.6794007 54.736192 -3.77514474 54.736192"></polygon>
                                <path d="M0.175531915,33.9393939 L17.7287234,33.9393939 C17.6117021,23.0976431 23.3457447,17.6767677 34.9308511,17.6767677 C34.9308511,12.5048132 34.9308511,6.6555099 34.9308511,0.128857648 L4.39953245,0.128857648 C2.06668137,0.128857648 0.175531915,2.0200071 0.175531915,4.35285818 L0.175531915,33.9393939 L0.175531915,33.9393939 Z" id="Seat" fill="url(#linearGradient-2)"></path>
                            </g>
                        </g>
                        <g id="C9" transform="translate(1.000000, 235.333333)">
                            <g id="C9_4" transform="translate(27.000000, 87.166667) scale(1, -1) translate(-27.000000, -87.166667) translate(0.000000, 57.666667)" stroke="#05070A" stroke-width="2.11200027">
                                <rect id="Rectangle" x="34.2287234" y="0" width="19.3085106" height="17.6767677"></rect>
                                <polygon id="Rectangle-Copy" transform="translate(8.952128, 45.959596) rotate(90.000000) translate(-8.952128, -45.959596) " points="-3.77514474 37.1830005 21.6794007 37.1830005 21.6794007 54.736192 -3.77514474 54.736192"></polygon>
                                <path d="M0.175531915,33.9393939 L17.7287234,33.9393939 C17.6117021,23.0976431 23.3457447,17.6767677 34.9308511,17.6767677 C34.9308511,12.5048132 34.9308511,6.6555099 34.9308511,0.128857648 L4.39953245,0.128857648 C2.06668137,0.128857648 0.175531915,2.0200071 0.175531915,4.35285818 L0.175531915,33.9393939 L0.175531915,33.9393939 Z" id="Seat" fill="url(#linearGradient-2)"></path>
                            </g>
                            <text font-family="Helvetica" font-size="20" font-weight="normal" fill="#C6D0DC">
                                <tspan x="51" y="61.6666667">C9</tspan>
                            </text>
                            <g id="C9_3" transform="translate(104.824468, 87.166667) scale(-1, -1) translate(-104.824468, -87.166667) translate(77.824468, 57.666667)" stroke="#05070A" stroke-width="2.11200027">
                                <rect id="Rectangle" x="34.2287234" y="0" width="19.3085106" height="17.6767677"></rect>
                                <polygon id="Rectangle-Copy" transform="translate(8.952128, 45.959596) rotate(90.000000) translate(-8.952128, -45.959596) " points="-3.77514474 37.1830005 21.6794007 37.1830005 21.6794007 54.736192 -3.77514474 54.736192"></polygon>
                                <path d="M0.175531915,33.9393939 L17.7287234,33.9393939 C17.6117021,23.0976431 23.3457447,17.6767677 34.9308511,17.6767677 C34.9308511,12.5048132 34.9308511,6.6555099 34.9308511,0.128857648 L4.39953245,0.128857648 C2.06668137,0.128857648 0.175531915,2.0200071 0.175531915,4.35285818 L0.175531915,33.9393939 L0.175531915,33.9393939 Z" id="Seat" fill-opacity="0.4" fill="url(#linearGradient-1)"></path>
                            </g>
                            <g id="C9_2" transform="translate(104.824468, 29.500000) scale(-1, 1) translate(-104.824468, -29.500000) translate(77.824468, 0.000000)" stroke="#05070A" stroke-width="2.11200027">
                                <rect id="Rectangle" x="34.2287234" y="0" width="19.3085106" height="17.6767677"></rect>
                                <polygon id="Rectangle-Copy" transform="translate(8.952128, 45.959596) rotate(90.000000) translate(-8.952128, -45.959596) " points="-3.77514474 37.1830005 21.6794007 37.1830005 21.6794007 54.736192 -3.77514474 54.736192"></polygon>
                                <path d="M0.175531915,33.9393939 L17.7287234,33.9393939 C17.6117021,23.0976431 23.3457447,17.6767677 34.9308511,17.6767677 C34.9308511,12.5048132 34.9308511,6.6555099 34.9308511,0.128857648 L4.39953245,0.128857648 C2.06668137,0.128857648 0.175531915,2.0200071 0.175531915,4.35285818 L0.175531915,33.9393939 L0.175531915,33.9393939 Z" id="Seat" fill-opacity="0.4" fill="url(#linearGradient-1)"></path>
                            </g>
                            <g id="C9_1" stroke="#05070A" stroke-width="2.11200027">
                                <rect id="Rectangle" x="34.2287234" y="0" width="19.3085106" height="17.6767677"></rect>
                                <polygon id="Rectangle-Copy" transform="translate(8.952128, 45.959596) rotate(90.000000) translate(-8.952128, -45.959596) " points="-3.77514474 37.1830005 21.6794007 37.1830005 21.6794007 54.736192 -3.77514474 54.736192"></polygon>
                                <path d="M0.175531915,33.9393939 L17.7287234,33.9393939 C17.6117021,23.0976431 23.3457447,17.6767677 34.9308511,17.6767677 C34.9308511,12.5048132 34.9308511,6.6555099 34.9308511,0.128857648 L4.39953245,0.128857648 C2.06668137,0.128857648 0.175531915,2.0200071 0.175531915,4.35285818 L0.175531915,33.9393939 L0.175531915,33.9393939 Z" id="Seat" fill-opacity="0.4" fill="url(#linearGradient-1)"></path>
                            </g>
                        </g>
                    </g>
                </g>
            </g>
        </g>
    </g>
</svg>