<?xml version="1.0" encoding="UTF-8"?>
<svg width="154px" height="500px" viewBox="0 0 154 500" version="1.1" xmlns="http://www.w3.org/2000/svg" xmlns:xlink="http://www.w3.org/1999/xlink">
    <!-- Generator: Sketch 63.1 (92452) - https://sketch.com -->
    <title>Phase 3</title>
    <desc>Created with Sketch.</desc>
    <defs>
        <linearGradient x1="85.366292%" y1="6.59567737%" x2="3.93715116%" y2="104.425571%" id="linearGradient-1">
            <stop stop-color="#69ACDF" stop-opacity="0.9" offset="0%"></stop>
            <stop stop-color="#A8D6F9" stop-opacity="0.9" offset="100%"></stop>
        </linearGradient>
        <linearGradient x1="85.366292%" y1="42.5976131%" x2="3.93715116%" y2="59.2820048%" id="linearGradient-2">
            <stop stop-color="#69ACDF" stop-opacity="0.9" offset="0%"></stop>
            <stop stop-color="#A8D6F9" stop-opacity="0.9" offset="100%"></stop>
        </linearGradient>
    </defs>
    <g id="Homepage-&amp;-Cubicle" stroke="none" stroke-width="1" fill="none" fill-rule="evenodd">
        <g id="Phase-1-Copy" transform="translate(-1005.000000, -188.000000)">
            <g id="Group-8" transform="translate(854.000000, 135.000000)">
                <g id="Group-2-+-Group-4-+-Group-4-Copy-+-Group-2-Copy-+-Oval-+-Oval-Copy-2-+-Oval-Copy-+-Oval-Copy-3-+-S1-+-S3-+-S4-+-S2-Mask">
                    <g id="Phase-3" transform="translate(152.000000, 55.000000)">
                        <g id="Group-18">
                            <g id="Phase-1-SVG">
                                <g id="C1_4" transform="translate(27.000000, 66.666667) scale(1, -1) translate(-27.000000, -66.666667) translate(0.000000, 43.666667)">
                                    <rect id="Rectangle" stroke="#05070A" stroke-width="2.11200027" x="34.2287234" y="0" width="19.3085106" height="17.6767677"></rect>
                                    <polygon id="Rectangle-Copy" stroke="#05070A" stroke-width="2.11200027" transform="translate(8.952128, 39.232323) rotate(90.000000) translate(-8.952128, -39.232323) " points="2.95212799 30.4557278 14.952128 30.4557278 14.952128 48.0089193 2.95212799 48.0089193"></polygon>
                                    <path d="M0.175531915,33.9393939 L17.7287234,33.9393939 C17.6117021,23.0976431 23.3457447,17.6767677 34.9308511,17.6767677 C34.9308511,12.5048132 34.9308511,6.6555099 34.9308511,0.128857648 L4.39953245,0.128857648 C2.06668137,0.128857648 0.175531915,2.0200071 0.175531915,4.35285818 L0.175531915,33.9393939 L0.175531915,33.9393939 Z" id="Seat" stroke="#05070A" stroke-width="2.11200027" fill-opacity="0.2" fill="url(#linearGradient-1)"></path>
                                    <text id="S18" transform="translate(14.500000, 13.166667) scale(1, -1) translate(-14.500000, -13.166667) " font-family="Montserrat-Medium, Montserrat" font-size="10" font-weight="400" fill="#B3BFD1">
                                        <tspan x="6" y="16.6666667">S18</tspan>
                                    </text>
                                </g>
                                <g id="Group-17" transform="translate(97.824468, 0.000000)">
                                    <g id="C1_3" transform="translate(27.000000, 67.666667) scale(-1, -1) translate(-27.000000, -67.666667) translate(0.000000, 44.666667)">
                                        <rect id="Rectangle" stroke="#05070A" stroke-width="2.11200027" x="34.2287234" y="0" width="19.3085106" height="17.6767677"></rect>
                                        <polygon id="Rectangle-Copy" stroke="#05070A" stroke-width="2.11200027" transform="translate(8.952128, 39.232323) rotate(90.000000) translate(-8.952128, -39.232323) " points="2.95212799 30.4557278 14.952128 30.4557278 14.952128 48.0089193 2.95212799 48.0089193"></polygon>
                                        <path d="M0.175531915,33.9393939 L17.7287234,33.9393939 C17.6117021,23.0976431 23.3457447,17.6767677 34.9308511,17.6767677 C34.9308511,12.5048132 34.9308511,6.6555099 34.9308511,0.128857648 L4.39953245,0.128857648 C2.06668137,0.128857648 0.175531915,2.0200071 0.175531915,4.35285818 L0.175531915,33.9393939 L0.175531915,33.9393939 Z" id="Seat" stroke="#05070A" stroke-width="2.11200027" fill-opacity="0.2" fill="url(#linearGradient-1)"></path>
                                        <text id="S19" transform="translate(13.324468, 13.166667) scale(-1, -1) translate(-13.324468, -13.166667) " font-family="Montserrat-Medium, Montserrat" font-size="10" font-weight="400" fill="#B3BFD1">
                                            <tspan x="4.82446809" y="16.6666667">S19</tspan>
                                        </text>
                                    </g>
                                    <g id="C1_2" transform="translate(27.000000, 23.000000) scale(-1, 1) translate(-27.000000, -23.000000) ">
                                        <rect id="Rectangle" stroke="#05070A" stroke-width="2.11200027" x="34.2287234" y="0" width="19.3085106" height="17.6767677"></rect>
                                        <polygon id="Rectangle-Copy" stroke="#05070A" stroke-width="2.11200027" transform="translate(8.952128, 39.232323) rotate(90.000000) translate(-8.952128, -39.232323) " points="2.95212799 30.4557278 14.952128 30.4557278 14.952128 48.0089193 2.95212799 48.0089193"></polygon>
                                        <path d="M0.175531915,33.9393939 L17.7287234,33.9393939 C17.6117021,23.0976431 23.3457447,17.6767677 34.9308511,17.6767677 C34.9308511,12.5048132 34.9308511,6.6555099 34.9308511,0.128857648 L4.39953245,0.128857648 C2.06668137,0.128857648 0.175531915,2.0200071 0.175531915,4.35285818 L0.175531915,33.9393939 L0.175531915,33.9393939 Z" id="Seat" stroke="#05070A" stroke-width="2.11200027" fill-opacity="0.2" fill="url(#linearGradient-1)"></path>
                                        <text id="S20" transform="translate(12.324468, 12.500000) scale(-1, 1) translate(-12.324468, -12.500000) " font-family="Montserrat-Medium, Montserrat" font-size="10" font-weight="400" fill="#B3BFD1">
                                            <tspan x="2.82446809" y="16">S20</tspan>
                                        </text>
                                    </g>
                                </g>
                                <g id="C1_1">
                                    <rect id="Rectangle" stroke="#05070A" stroke-width="2.11200027" x="34.2287234" y="-5.32907052e-15" width="19.3085106" height="17.6767677"></rect>
                                    <polygon id="Rectangle-Copy" stroke="#05070A" stroke-width="2.11200027" transform="translate(8.952128, 38.732323) rotate(90.000000) translate(-8.952128, -38.732323) " points="3.45212799 29.9557278 14.452128 29.9557278 14.452128 47.5089193 3.45212799 47.5089193"></polygon>
                                    <path d="M0.175531915,33.9393939 L17.7287234,33.9393939 C17.6117021,23.0976431 23.3457447,17.6767677 34.9308511,17.6767677 C34.9308511,12.5048132 34.9308511,6.6555099 34.9308511,0.128857648 L4.39953245,0.128857648 C2.06668137,0.128857648 0.175531915,2.0200071 0.175531915,4.35285818 L0.175531915,33.9393939 L0.175531915,33.9393939 Z" id="Seat" stroke="#05070A" stroke-width="2.11200027" fill-opacity="0.2" fill="url(#linearGradient-1)"></path>
                                    <text id="S21" font-family="Montserrat-Medium, Montserrat" font-size="10" font-weight="400" fill="#B3BFD1">
                                        <tspan x="5" y="16">S21</tspan>
                                    </text>
                                </g>
                                <text id="C5" font-family="Montserrat-Regular, Montserrat" font-size="20" font-weight="normal" fill="#C6D0DC">
                                    <tspan x="62" y="53">C5</tspan>
                                </text>
                            </g>
                            <g id="Phase-1-SVG-Copy-3" transform="translate(0.000000, 270.000000)">
                                <g id="C1_4" transform="translate(27.000000, 66.666667) scale(1, -1) translate(-27.000000, -66.666667) translate(0.000000, 43.666667)">
                                    <rect id="Rectangle" stroke="#05070A" stroke-width="2.11200027" x="34.2287234" y="0" width="19.3085106" height="17.6767677"></rect>
                                    <polygon id="Rectangle-Copy" stroke="#05070A" stroke-width="2.11200027" transform="translate(8.952128, 39.232323) rotate(90.000000) translate(-8.952128, -39.232323) " points="2.95212799 30.4557278 14.952128 30.4557278 14.952128 48.0089193 2.95212799 48.0089193"></polygon>
                                    <path d="M0.175531915,33.9393939 L17.7287234,33.9393939 C17.6117021,23.0976431 23.3457447,17.6767677 34.9308511,17.6767677 C34.9308511,12.5048132 34.9308511,6.6555099 34.9308511,0.128857648 L4.39953245,0.128857648 C2.06668137,0.128857648 0.175531915,2.0200071 0.175531915,4.35285818 L0.175531915,33.9393939 L0.175531915,33.9393939 Z" id="Seat" stroke="#05070A" stroke-width="2.11200027" fill-opacity="0.2" fill="url(#linearGradient-1)"></path>
                                    <text id="S6" transform="translate(12.500000, 13.166667) scale(1, -1) translate(-12.500000, -13.166667) " font-family="Montserrat-Medium, Montserrat" font-size="10" font-weight="400" fill="#B3BFD1">
                                        <tspan x="6" y="16.6666667">S6</tspan>
                                    </text>
                                </g>
                                <g id="Group-17" transform="translate(97.824468, 0.000000)">
                                    <g id="C1_3" transform="translate(27.000000, 67.666667) scale(-1, -1) translate(-27.000000, -67.666667) translate(0.000000, 44.666667)">
                                        <rect id="Rectangle" stroke="#05070A" stroke-width="2.11200027" x="34.2287234" y="0" width="19.3085106" height="17.6767677"></rect>
                                        <polygon id="Rectangle-Copy" stroke="#05070A" stroke-width="2.11200027" transform="translate(8.952128, 39.232323) rotate(90.000000) translate(-8.952128, -39.232323) " points="2.95212799 30.4557278 14.952128 30.4557278 14.952128 48.0089193 2.95212799 48.0089193"></polygon>
                                        <path d="M0.175531915,33.9393939 L17.7287234,33.9393939 C17.6117021,23.0976431 23.3457447,17.6767677 34.9308511,17.6767677 C34.9308511,12.5048132 34.9308511,6.6555099 34.9308511,0.128857648 L4.39953245,0.128857648 C2.06668137,0.128857648 0.175531915,2.0200071 0.175531915,4.35285818 L0.175531915,33.9393939 L0.175531915,33.9393939 Z" id="Seat" stroke="#05070A" stroke-width="2.11200027" fill-opacity="0.2" fill="url(#linearGradient-1)"></path>
                                        <text id="S7" transform="translate(15.324468, 13.166667) scale(-1, -1) translate(-15.324468, -13.166667) " font-family="Montserrat-Medium, Montserrat" font-size="10" font-weight="400" fill="#B3BFD1">
                                            <tspan x="8.82446809" y="16.6666667">S7</tspan>
                                        </text>
                                    </g>
                                    <g id="C1_2" transform="translate(27.000000, 23.000000) scale(-1, 1) translate(-27.000000, -23.000000) ">
                                        <rect id="Rectangle" stroke="#05070A" stroke-width="2.11200027" x="34.2287234" y="0" width="19.3085106" height="17.6767677"></rect>
                                        <polygon id="Rectangle-Copy" stroke="#05070A" stroke-width="2.11200027" transform="translate(8.952128, 39.232323) rotate(90.000000) translate(-8.952128, -39.232323) " points="2.95212799 30.4557278 14.952128 30.4557278 14.952128 48.0089193 2.95212799 48.0089193"></polygon>
                                        <path d="M0.175531915,33.9393939 L17.7287234,33.9393939 C17.6117021,23.0976431 23.3457447,17.6767677 34.9308511,17.6767677 C34.9308511,12.5048132 34.9308511,6.6555099 34.9308511,0.128857648 L4.39953245,0.128857648 C2.06668137,0.128857648 0.175531915,2.0200071 0.175531915,4.35285818 L0.175531915,33.9393939 L0.175531915,33.9393939 Z" id="Seat" stroke="#05070A" stroke-width="2.11200027" fill-opacity="0.2" fill="url(#linearGradient-1)"></path>
                                        <text id="S8" transform="translate(15.324468, 12.500000) scale(-1, 1) translate(-15.324468, -12.500000) " font-family="Montserrat-Medium, Montserrat" font-size="10" font-weight="400" fill="#B3BFD1">
                                            <tspan x="8.82446809" y="16">S8</tspan>
                                        </text>
                                    </g>
                                </g>
                                <g id="C1_1">
                                    <rect id="Rectangle" stroke="#05070A" stroke-width="2.11200027" x="34.2287234" y="-5.32907052e-15" width="19.3085106" height="17.6767677"></rect>
                                    <polygon id="Rectangle-Copy" stroke="#05070A" stroke-width="2.11200027" transform="translate(8.952128, 38.732323) rotate(90.000000) translate(-8.952128, -38.732323) " points="3.45212799 29.9557278 14.452128 29.9557278 14.452128 47.5089193 3.45212799 47.5089193"></polygon>
                                    <path d="M0.175531915,33.9393939 L17.7287234,33.9393939 C17.6117021,23.0976431 23.3457447,17.6767677 34.9308511,17.6767677 C34.9308511,12.5048132 34.9308511,6.6555099 34.9308511,0.128857648 L4.39953245,0.128857648 C2.06668137,0.128857648 0.175531915,2.0200071 0.175531915,4.35285818 L0.175531915,33.9393939 L0.175531915,33.9393939 Z" id="Seat" stroke="#05070A" stroke-width="2.11200027" fill-opacity="0.2" fill="url(#linearGradient-1)"></path>
                                    <text id="S9" font-family="Montserrat-Medium, Montserrat" font-size="10" font-weight="400" fill="#B3BFD1">
                                        <tspan x="5" y="16">S9</tspan>
                                    </text>
                                </g>
                                <text id="C2" font-family="Montserrat-Regular, Montserrat" font-size="20" font-weight="normal" fill="#C6D0DC">
                                    <tspan x="62" y="53">C2</tspan>
                                </text>
                            </g>
                            <g id="Phase-1-SVG-Copy" transform="translate(0.000000, 90.000000)">
                                <g id="C1_4" transform="translate(27.000000, 66.666667) scale(1, -1) translate(-27.000000, -66.666667) translate(0.000000, 43.666667)">
                                    <rect id="Rectangle" stroke="#05070A" stroke-width="2.11200027" x="34.2287234" y="0" width="19.3085106" height="17.6767677"></rect>
                                    <polygon id="Rectangle-Copy" stroke="#05070A" stroke-width="2.11200027" transform="translate(8.952128, 39.232323) rotate(90.000000) translate(-8.952128, -39.232323) " points="2.95212799 30.4557278 14.952128 30.4557278 14.952128 48.0089193 2.95212799 48.0089193"></polygon>
                                    <path d="M0.175531915,33.9393939 L17.7287234,33.9393939 C17.6117021,23.0976431 23.3457447,17.6767677 34.9308511,17.6767677 C34.9308511,12.5048132 34.9308511,6.6555099 34.9308511,0.128857648 L4.39953245,0.128857648 C2.06668137,0.128857648 0.175531915,2.0200071 0.175531915,4.35285818 L0.175531915,33.9393939 L0.175531915,33.9393939 Z" id="Seat" stroke="#05070A" stroke-width="2.11200027" fill-opacity="0.2" fill="url(#linearGradient-1)"></path>
                                    <text id="S14" transform="translate(14.500000, 13.166667) scale(1, -1) translate(-14.500000, -13.166667) " font-family="Montserrat-Medium, Montserrat" font-size="10" font-weight="400" fill="#B3BFD1">
                                        <tspan x="6" y="16.6666667">S14</tspan>
                                    </text>
                                </g>
                                <g id="Group-17" transform="translate(97.824468, 0.000000)">
                                    <g id="C1_3" transform="translate(27.000000, 67.666667) scale(-1, -1) translate(-27.000000, -67.666667) translate(0.000000, 44.666667)">
                                        <rect id="Rectangle" stroke="#05070A" stroke-width="2.11200027" x="34.2287234" y="0" width="19.3085106" height="17.6767677"></rect>
                                        <polygon id="Rectangle-Copy" stroke="#05070A" stroke-width="2.11200027" transform="translate(8.952128, 39.232323) rotate(90.000000) translate(-8.952128, -39.232323) " points="2.95212799 30.4557278 14.952128 30.4557278 14.952128 48.0089193 2.95212799 48.0089193"></polygon>
                                        <path d="M0.175531915,33.9393939 L17.7287234,33.9393939 C17.6117021,23.0976431 23.3457447,17.6767677 34.9308511,17.6767677 C34.9308511,12.5048132 34.9308511,6.6555099 34.9308511,0.128857648 L4.39953245,0.128857648 C2.06668137,0.128857648 0.175531915,2.0200071 0.175531915,4.35285818 L0.175531915,33.9393939 L0.175531915,33.9393939 Z" id="Seat" stroke="#05070A" stroke-width="2.11200027" fill-opacity="0.2" fill="url(#linearGradient-1)"></path>
                                        <text id="S15" transform="translate(13.824468, 13.166667) scale(-1, -1) translate(-13.824468, -13.166667) " font-family="Montserrat-Medium, Montserrat" font-size="10" font-weight="400" fill="#B3BFD1">
                                            <tspan x="5.82446809" y="16.6666667">S15</tspan>
                                        </text>
                                    </g>
                                    <g id="C1_2" transform="translate(27.000000, 23.000000) scale(-1, 1) translate(-27.000000, -23.000000) ">
                                        <rect id="Rectangle" stroke="#05070A" stroke-width="2.11200027" x="34.2287234" y="0" width="19.3085106" height="17.6767677"></rect>
                                        <polygon id="Rectangle-Copy" stroke="#05070A" stroke-width="2.11200027" transform="translate(8.952128, 39.232323) rotate(90.000000) translate(-8.952128, -39.232323) " points="2.95212799 30.4557278 14.952128 30.4557278 14.952128 48.0089193 2.95212799 48.0089193"></polygon>
                                        <path d="M0.175531915,33.9393939 L17.7287234,33.9393939 C17.6117021,23.0976431 23.3457447,17.6767677 34.9308511,17.6767677 C34.9308511,12.5048132 34.9308511,6.6555099 34.9308511,0.128857648 L4.39953245,0.128857648 C2.06668137,0.128857648 0.175531915,2.0200071 0.175531915,4.35285818 L0.175531915,33.9393939 L0.175531915,33.9393939 Z" id="Seat" stroke="#05070A" stroke-width="2.11200027" fill-opacity="0.2" fill="url(#linearGradient-1)"></path>
                                        <text id="S16" transform="translate(13.324468, 12.500000) scale(-1, 1) translate(-13.324468, -12.500000) " font-family="Montserrat-Medium, Montserrat" font-size="10" font-weight="400" fill="#B3BFD1">
                                            <tspan x="4.82446809" y="16">S16</tspan>
                                        </text>
                                    </g>
                                </g>
                                <g id="C1_1">
                                    <rect id="Rectangle" stroke="#05070A" stroke-width="2.11200027" x="34.2287234" y="-5.32907052e-15" width="19.3085106" height="17.6767677"></rect>
                                    <polygon id="Rectangle-Copy" stroke="#05070A" stroke-width="2.11200027" transform="translate(8.952128, 38.732323) rotate(90.000000) translate(-8.952128, -38.732323) " points="3.45212799 29.9557278 14.452128 29.9557278 14.452128 47.5089193 3.45212799 47.5089193"></polygon>
                                    <path d="M0.175531915,33.9393939 L17.7287234,33.9393939 C17.6117021,23.0976431 23.3457447,17.6767677 34.9308511,17.6767677 C34.9308511,12.5048132 34.9308511,6.6555099 34.9308511,0.128857648 L4.39953245,0.128857648 C2.06668137,0.128857648 0.175531915,2.0200071 0.175531915,4.35285818 L0.175531915,33.9393939 L0.175531915,33.9393939 Z" id="Seat" stroke="#05070A" stroke-width="2.11200027" fill-opacity="0.2" fill="url(#linearGradient-1)"></path>
                                    <text id="S17" font-family="Montserrat-Medium, Montserrat" font-size="10" font-weight="400" fill="#B3BFD1">
                                        <tspan x="5" y="16">S17</tspan>
                                    </text>
                                </g>
                                <text id="C4" font-family="Montserrat-Regular, Montserrat" font-size="20" font-weight="normal" fill="#C6D0DC">
                                    <tspan x="62" y="53">C4</tspan>
                                </text>
                            </g>
                            <g id="Phase-1-SVG-Copy-2" transform="translate(0.000000, 180.000000)">
                                <g id="C1_4" transform="translate(27.000000, 66.666667) scale(1, -1) translate(-27.000000, -66.666667) translate(0.000000, 43.666667)">
                                    <rect id="Rectangle" stroke="#05070A" stroke-width="2.11200027" x="34.2287234" y="0" width="19.3085106" height="17.6767677"></rect>
                                    <polygon id="Rectangle-Copy" stroke="#05070A" stroke-width="2.11200027" transform="translate(8.952128, 39.232323) rotate(90.000000) translate(-8.952128, -39.232323) " points="2.95212799 30.4557278 14.952128 30.4557278 14.952128 48.0089193 2.95212799 48.0089193"></polygon>
                                    <path d="M0.175531915,33.9393939 L17.7287234,33.9393939 C17.6117021,23.0976431 23.3457447,17.6767677 34.9308511,17.6767677 C34.9308511,12.5048132 34.9308511,6.6555099 34.9308511,0.128857648 L4.39953245,0.128857648 C2.06668137,0.128857648 0.175531915,2.0200071 0.175531915,4.35285818 L0.175531915,33.9393939 L0.175531915,33.9393939 Z" id="Seat" stroke="#05070A" stroke-width="2.11200027" fill-opacity="0.2" fill="url(#linearGradient-1)"></path>
                                    <text id="S10" transform="translate(14.500000, 13.166667) scale(1, -1) translate(-14.500000, -13.166667) " font-family="Montserrat-Medium, Montserrat" font-size="10" font-weight="400" fill="#B3BFD1">
                                        <tspan x="6" y="16.6666667">S10</tspan>
                                    </text>
                                </g>
                                <g id="Group-17" transform="translate(97.824468, 0.000000)">
                                    <g id="C1_3" transform="translate(27.000000, 67.666667) scale(-1, -1) translate(-27.000000, -67.666667) translate(0.000000, 44.666667)">
                                        <rect id="Rectangle" stroke="#05070A" stroke-width="2.11200027" x="34.2287234" y="0" width="19.3085106" height="17.6767677"></rect>
                                        <polygon id="Rectangle-Copy" stroke="#05070A" stroke-width="2.11200027" transform="translate(8.952128, 39.232323) rotate(90.000000) translate(-8.952128, -39.232323) " points="2.95212799 30.4557278 14.952128 30.4557278 14.952128 48.0089193 2.95212799 48.0089193"></polygon>
                                        <path d="M0.175531915,33.9393939 L17.7287234,33.9393939 C17.6117021,23.0976431 23.3457447,17.6767677 34.9308511,17.6767677 C34.9308511,12.5048132 34.9308511,6.6555099 34.9308511,0.128857648 L4.39953245,0.128857648 C2.06668137,0.128857648 0.175531915,2.0200071 0.175531915,4.35285818 L0.175531915,33.9393939 L0.175531915,33.9393939 Z" id="Seat" stroke="#05070A" stroke-width="2.11200027" fill-opacity="0.2" fill="url(#linearGradient-1)"></path>
                                        <text id="S11" transform="translate(14.824468, 13.166667) scale(-1, -1) translate(-14.824468, -13.166667) " font-family="Montserrat-Medium, Montserrat" font-size="10" font-weight="400" fill="#B3BFD1">
                                            <tspan x="7.82446809" y="16.6666667">S11</tspan>
                                        </text>
                                    </g>
                                    <g id="C1_2" transform="translate(27.000000, 23.000000) scale(-1, 1) translate(-27.000000, -23.000000) ">
                                        <rect id="Rectangle" stroke="#05070A" stroke-width="2.11200027" x="34.2287234" y="0" width="19.3085106" height="17.6767677"></rect>
                                        <polygon id="Rectangle-Copy" stroke="#05070A" stroke-width="2.11200027" transform="translate(8.952128, 39.232323) rotate(90.000000) translate(-8.952128, -39.232323) " points="2.95212799 30.4557278 14.952128 30.4557278 14.952128 48.0089193 2.95212799 48.0089193"></polygon>
                                        <path d="M0.175531915,33.9393939 L17.7287234,33.9393939 C17.6117021,23.0976431 23.3457447,17.6767677 34.9308511,17.6767677 C34.9308511,12.5048132 34.9308511,6.6555099 34.9308511,0.128857648 L4.39953245,0.128857648 C2.06668137,0.128857648 0.175531915,2.0200071 0.175531915,4.35285818 L0.175531915,33.9393939 L0.175531915,33.9393939 Z" id="Seat" stroke="#05070A" stroke-width="2.11200027" fill-opacity="0.2" fill="url(#linearGradient-1)"></path>
                                        <text id="S12" transform="translate(13.824468, 12.500000) scale(-1, 1) translate(-13.824468, -12.500000) " font-family="Montserrat-Medium, Montserrat" font-size="10" font-weight="400" fill="#B3BFD1">
                                            <tspan x="5.82446809" y="16">S12</tspan>
                                        </text>
                                    </g>
                                </g>
                                <g id="C1_1">
                                    <rect id="Rectangle" stroke="#05070A" stroke-width="2.11200027" x="34.2287234" y="-5.32907052e-15" width="19.3085106" height="17.6767677"></rect>
                                    <polygon id="Rectangle-Copy" stroke="#05070A" stroke-width="2.11200027" transform="translate(8.952128, 38.732323) rotate(90.000000) translate(-8.952128, -38.732323) " points="3.45212799 29.9557278 14.452128 29.9557278 14.452128 47.5089193 3.45212799 47.5089193"></polygon>
                                    <path d="M0.175531915,33.9393939 L17.7287234,33.9393939 C17.6117021,23.0976431 23.3457447,17.6767677 34.9308511,17.6767677 C34.9308511,12.5048132 34.9308511,6.6555099 34.9308511,0.128857648 L4.39953245,0.128857648 C2.06668137,0.128857648 0.175531915,2.0200071 0.175531915,4.35285818 L0.175531915,33.9393939 L0.175531915,33.9393939 Z" id="Seat" stroke="#05070A" stroke-width="2.11200027" fill-opacity="0.2" fill="url(#linearGradient-1)"></path>
                                    <text id="S13" font-family="Montserrat-Medium, Montserrat" font-size="10" font-weight="400" fill="#B3BFD1">
                                        <tspan x="5" y="16">S13</tspan>
                                    </text>
                                </g>
                                <text id="C3" font-family="Montserrat-Regular, Montserrat" font-size="20" font-weight="normal" fill="#C6D0DC">
                                    <tspan x="62" y="53">C3</tspan>
                                </text>
                            </g>
                        </g>
                        <g id="Phase-1-SVG-Copy-5" transform="translate(0.000000, 406.000000)">
                            <g id="C1_4" transform="translate(49.500000, 67.666667) scale(1, -1) translate(-49.500000, -67.666667) translate(0.000000, 44.666667)">
                                <rect id="Rectangle" stroke="#05070A" stroke-width="2.11200027" x="34.2287234" y="0" width="19.3085106" height="17.6767677"></rect>
                                <rect id="Rectangle-Copy-6" stroke="#05070A" stroke-width="2.11200027" fill-opacity="0.2" fill="url(#linearGradient-2)" x="54" y="9.09494702e-13" width="44" height="17.6767677"></rect>
                                <text id="S3" transform="translate(77.000000, 9.166667) scale(1, -1) translate(-77.000000, -9.166667) " font-family="Montserrat-Medium, Montserrat" font-size="10" font-weight="400" fill="#B3BFD1">
                                    <tspan x="71" y="12.6666667">S3</tspan>
                                </text>
                                <polygon id="Rectangle-Copy" stroke="#05070A" stroke-width="2.11200027" transform="translate(8.952128, 39.232323) rotate(90.000000) translate(-8.952128, -39.232323) " points="2.95212799 30.4557278 14.952128 30.4557278 14.952128 48.0089193 2.95212799 48.0089193"></polygon>
                                <path d="M0.175531915,33.9393939 L17.7287234,33.9393939 C17.6117021,23.0976431 23.3457447,17.6767677 34.9308511,17.6767677 C34.9308511,12.5048132 34.9308511,6.6555099 34.9308511,0.128857648 L4.39953245,0.128857648 C2.06668137,0.128857648 0.175531915,2.0200071 0.175531915,4.35285818 L0.175531915,33.9393939 L0.175531915,33.9393939 Z" id="Seat" stroke="#05070A" stroke-width="2.11200027" fill-opacity="0.2" fill="url(#linearGradient-1)"></path>
                                <text id="S2" transform="translate(12.000000, 13.166667) scale(1, -1) translate(-12.000000, -13.166667) " font-family="Montserrat-Medium, Montserrat" font-size="10" font-weight="400" fill="#B3BFD1">
                                    <tspan x="6" y="16.6666667">S2</tspan>
                                </text>
                            </g>
                            <g id="Group-17" transform="translate(97.824468, 0.000000)">
                                <g id="C1_3" transform="translate(27.000000, 67.666667) scale(-1, -1) translate(-27.000000, -67.666667) translate(0.000000, 44.666667)">
                                    <rect id="Rectangle" stroke="#05070A" stroke-width="2.11200027" x="34.2287234" y="0" width="19.3085106" height="17.6767677"></rect>
                                    <polygon id="Rectangle-Copy" stroke="#05070A" stroke-width="2.11200027" transform="translate(8.952128, 39.232323) rotate(90.000000) translate(-8.952128, -39.232323) " points="2.95212799 30.4557278 14.952128 30.4557278 14.952128 48.0089193 2.95212799 48.0089193"></polygon>
                                    <path d="M0.175531915,33.9393939 L17.7287234,33.9393939 C17.6117021,23.0976431 23.3457447,17.6767677 34.9308511,17.6767677 C34.9308511,12.5048132 34.9308511,6.6555099 34.9308511,0.128857648 L4.39953245,0.128857648 C2.06668137,0.128857648 0.175531915,2.0200071 0.175531915,4.35285818 L0.175531915,33.9393939 L0.175531915,33.9393939 Z" id="Seat" stroke="#05070A" stroke-width="2.11200027" fill-opacity="0.2" fill="url(#linearGradient-1)"></path>
                                    <text id="S4" transform="translate(15.324468, 13.166667) scale(-1, -1) translate(-15.324468, -13.166667) " font-family="Montserrat-Medium, Montserrat" font-size="10" font-weight="400" fill="#B3BFD1">
                                        <tspan x="8.82446809" y="16.6666667">S4</tspan>
                                    </text>
                                </g>
                                <g id="C1_2" transform="translate(27.000000, 23.000000) scale(-1, 1) translate(-27.000000, -23.000000) ">
                                    <rect id="Rectangle" stroke="#05070A" stroke-width="2.11200027" x="34.2287234" y="0" width="19.3085106" height="17.6767677"></rect>
                                    <polygon id="Rectangle-Copy" stroke="#05070A" stroke-width="2.11200027" transform="translate(8.952128, 39.232323) rotate(90.000000) translate(-8.952128, -39.232323) " points="2.95212799 30.4557278 14.952128 30.4557278 14.952128 48.0089193 2.95212799 48.0089193"></polygon>
                                    <path d="M0.175531915,33.9393939 L17.7287234,33.9393939 C17.6117021,23.0976431 23.3457447,17.6767677 34.9308511,17.6767677 C34.9308511,12.5048132 34.9308511,6.6555099 34.9308511,0.128857648 L4.39953245,0.128857648 C2.06668137,0.128857648 0.175531915,2.0200071 0.175531915,4.35285818 L0.175531915,33.9393939 L0.175531915,33.9393939 Z" id="Seat" stroke="#05070A" stroke-width="2.11200027" fill-opacity="0.2" fill="url(#linearGradient-1)"></path>
                                    <text id="S5" transform="translate(15.824468, 12.500000) scale(-1, 1) translate(-15.824468, -12.500000) " font-family="Montserrat-Medium, Montserrat" font-size="10" font-weight="400" fill="#B3BFD1">
                                        <tspan x="9.82446809" y="16">S5</tspan>
                                    </text>
                                </g>
                            </g>
                            <g id="C1_1" transform="translate(0.000000, 1.000000)">
                                <rect id="Rectangle" stroke="#05070A" stroke-width="2.11200027" x="34.2287234" y="-5.32907052e-15" width="19.3085106" height="17.6767677"></rect>
                                <polygon id="Rectangle-Copy" stroke="#05070A" stroke-width="2.11200027" transform="translate(8.952128, 38.732323) rotate(90.000000) translate(-8.952128, -38.732323) " points="3.45212799 29.9557278 14.452128 29.9557278 14.452128 47.5089193 3.45212799 47.5089193"></polygon>
                                <path d="M0.175531915,33.9393939 L17.7287234,33.9393939 C17.6117021,23.0976431 23.3457447,17.6767677 34.9308511,17.6767677 C34.9308511,12.5048132 34.9308511,6.6555099 34.9308511,0.128857648 L4.39953245,0.128857648 C2.06668137,0.128857648 0.175531915,2.0200071 0.175531915,4.35285818 L0.175531915,33.9393939 L0.175531915,33.9393939 Z" id="Seat" stroke="#05070A" stroke-width="2.11200027" fill-opacity="0.2" fill="url(#linearGradient-1)"></path>
                                <text id="S1" font-family="Montserrat-Medium, Montserrat" font-size="10" font-weight="400" fill="#B3BFD1">
                                    <tspan x="8" y="16">S1</tspan>
                                </text>
                            </g>
                            <text id="C1" font-family="Montserrat-Regular, Montserrat" font-size="20" font-weight="normal" fill="#C6D0DC">
                                <tspan x="65" y="53">C1</tspan>
                            </text>
                        </g>
                    </g>
                </g>
            </g>
        </g>
    </g>
</svg>