<?xml version="1.0" encoding="UTF-8"?>
<svg width="37px" height="36px" viewBox="0 0 37 36" version="1.1" xmlns="http://www.w3.org/2000/svg" xmlns:xlink="http://www.w3.org/1999/xlink">
    <!-- Generator: sketchtool 62 (101010) - https://sketch.com -->
    <title>ECED2580-DAA5-450E-85EC-D3F0F11CB97F</title>
    <desc>Created with sketchtool.</desc>
    <g id="Homepage-&amp;-Cubicle" stroke="none" stroke-width="1" fill="none" fill-rule="evenodd">
        <g id="Full-Company" transform="translate(-647.000000, -42.000000)" fill="#53657E">
            <g id="Group-30" transform="translate(513.000000, 34.000000)">
                <g id="CBE-BG" transform="translate(131.000000, 8.000000)">
                    <path d="M3.73959346,39.6140738 L39.1161355,39.6140738 L39.1161355,32.7941709 C39.1161355,32.6999767 39.037771,32.6204621 38.9449393,32.6204621 L3.91078972,32.6204621 C3.81795794,32.6204621 3.73959346,32.6999767 3.73959346,32.7941709 L3.73959346,39.6140738 Z M39.2113785,39.8073553 L3.64435047,39.8073553 C3.59170561,39.8073553 3.54910748,39.7637243 3.54910748,39.7107146 L3.54910748,32.7941709 C3.54910748,32.5955883 3.71467757,32.4271806 3.91078972,32.4271806 L38.9449393,32.4271806 C39.1410514,32.4271806 39.3066215,32.5955883 39.3066215,32.7941709 L39.3066215,39.7107146 C39.3066215,39.7637243 39.2640234,39.8073553 39.2113785,39.8073553 L39.2113785,39.8073553 Z" id="Fill-4"></path>
                    <path d="M6.56875234,33.2849184 C6.47913551,33.2849184 6.39755607,33.371365 6.39755607,33.4663748 L6.39755607,38.7600058 C6.39755607,38.861132 6.47752804,38.9496175 6.56875234,38.9496175 C6.66841589,38.9496175 6.75521963,38.861132 6.75521963,38.7600058 L6.75521963,33.4663748 C6.75521963,33.371365 6.66640654,33.2849184 6.56875234,33.2849184 M6.56875234,39.1424913 C6.37304206,39.1424913 6.20707009,38.9675592 6.20707009,38.7600058 L6.20707009,33.4663748 C6.20707009,33.2633068 6.37304206,33.0916369 6.56875234,33.0916369 C6.77330374,33.0916369 6.94570561,33.2633068 6.94570561,33.4663748 L6.94570561,38.7600058 C6.94570561,38.9675592 6.77330374,39.1424913 6.56875234,39.1424913 M9.61532243,33.2849184 C9.51766822,33.2849184 9.42885514,33.371365 9.42885514,33.4663748 L9.42885514,38.7600058 C9.42885514,38.861132 9.51565888,38.9496175 9.61532243,38.9496175 C9.71257477,38.9496175 9.79415421,38.8627631 9.79415421,38.7600058 L9.79415421,33.4663748 C9.79415421,33.369734 9.71056542,33.2849184 9.61532243,33.2849184 M9.61532243,39.1424913 C9.41077103,39.1424913 9.23836916,38.9675592 9.23836916,38.7600058 L9.23836916,33.4663748 C9.23836916,33.2633068 9.41077103,33.0916369 9.61532243,33.0916369 C9.81545327,33.0916369 9.98464019,33.2633068 9.98464019,33.4663748 L9.98464019,38.7600058 C9.98464019,38.9708214 9.81907009,39.1424913 9.61532243,39.1424913 M12.654257,33.2849184 C12.5566028,33.2849184 12.4673879,33.371365 12.4673879,33.4663748 L12.4673879,38.7600058 C12.4673879,38.861132 12.5545935,38.9496175 12.654257,38.9496175 C12.7503037,38.9496175 12.8254533,38.866433 12.8254533,38.7600058 L12.8254533,33.4663748 C12.8254533,33.3664718 12.7486963,33.2849184 12.654257,33.2849184 M12.654257,39.1424913 C12.4497056,39.1424913 12.2773037,38.9675592 12.2773037,38.7600058 L12.2773037,33.4663748 C12.2773037,33.2633068 12.4497056,33.0916369 12.654257,33.0916369 C12.8535841,33.0916369 13.0159393,33.2596369 13.0159393,33.4663748 L13.0159393,38.7600058 C13.0159393,38.9708214 12.8535841,39.1424913 12.654257,39.1424913 M15.6855561,33.2849184 C15.5911168,33.2849184 15.5139579,33.3664718 15.5139579,33.4663748 L15.5139579,38.7600058 C15.5139579,38.866433 15.5891075,38.9496175 15.6855561,38.9496175 C15.7824065,38.9496175 15.863986,38.8627631 15.863986,38.7600058 L15.863986,33.4663748 C15.863986,33.369734 15.7803972,33.2849184 15.6855561,33.2849184 M15.6855561,39.1424913 C15.4858271,39.1424913 15.323472,38.9708214 15.323472,38.7600058 L15.323472,33.4663748 C15.323472,33.2596369 15.4858271,33.0916369 15.6855561,33.0916369 C15.8856869,33.0916369 16.054472,33.2633068 16.054472,33.4663748 L16.054472,38.7600058 C16.054472,38.9708214 15.8889019,39.1424913 15.6855561,39.1424913 M27.1701729,33.2849184 C27.0725187,33.2849184 26.9837056,33.371365 26.9837056,33.4663748 L26.9837056,38.7600058 C26.9837056,38.861132 27.0709112,38.9496175 27.1701729,38.9496175 C27.2662196,38.9496175 27.341771,38.866433 27.341771,38.7600058 L27.341771,33.4663748 C27.341771,33.3664718 27.265014,33.2849184 27.1701729,33.2849184 M27.1701729,39.1424913 C26.9660234,39.1424913 26.7932196,38.9675592 26.7932196,38.7600058 L26.7932196,33.4663748 C26.7932196,33.2633068 26.9660234,33.0916369 27.1701729,33.0916369 C27.3699019,33.0916369 27.532257,33.2596369 27.532257,33.4663748 L27.532257,38.7600058 C27.532257,38.9708214 27.3699019,39.1424913 27.1701729,39.1424913 M30.201472,33.2849184 C30.1118551,33.2849184 30.0302757,33.371365 30.0302757,33.4663748 L30.0302757,38.7600058 C30.0302757,38.861132 30.1102477,38.9496175 30.201472,38.9496175 C30.2987243,38.9496175 30.3803037,38.8627631 30.3803037,38.7600058 L30.3803037,33.4663748 C30.3803037,33.369734 30.296715,33.2849184 30.201472,33.2849184 M30.201472,39.1424913 C30.0053598,39.1424913 29.8397897,38.9675592 29.8397897,38.7600058 L29.8397897,33.4663748 C29.8397897,33.2633068 30.0053598,33.0916369 30.201472,33.0916369 C30.4020047,33.0916369 30.5711916,33.2633068 30.5711916,33.4663748 L30.5711916,38.7600058 C30.5711916,38.9708214 30.4052196,39.1424913 30.201472,39.1424913 M33.2404065,33.2849184 C33.1447617,33.2849184 33.0615748,33.369734 33.0615748,33.4663748 L33.0615748,38.7600058 C33.0615748,38.8627631 33.1431542,38.9496175 33.2404065,38.9496175 C33.3396682,38.9496175 33.4268738,38.861132 33.4268738,38.7600058 L33.4268738,33.4663748 C33.4268738,33.371365 33.3380607,33.2849184 33.2404065,33.2849184 M33.2404065,39.1424913 C33.0366589,39.1424913 32.8710888,38.9708214 32.8710888,38.7600058 L32.8710888,33.4663748 C32.8710888,33.2633068 33.0402757,33.0916369 33.2404065,33.0916369 C33.4445561,33.0916369 33.6173598,33.2633068 33.6173598,33.4663748 L33.6173598,38.7600058 C33.6173598,38.9675592 33.4445561,39.1424913 33.2404065,39.1424913 M36.2789393,33.2849184 C36.1836963,33.2849184 36.1001075,33.369734 36.1001075,33.4663748 L36.1001075,38.7600058 C36.1001075,38.8627631 36.1820888,38.9496175 36.2789393,38.9496175 C36.3761916,38.9496175 36.457771,38.8627631 36.457771,38.7600058 L36.457771,33.4663748 C36.457771,33.369734 36.3745841,33.2849184 36.2789393,33.2849184 M36.2789393,39.1424913 C36.0751916,39.1424913 35.9096215,38.9708214 35.9096215,38.7600058 L35.9096215,33.4663748 C35.9096215,33.2633068 36.0788084,33.0916369 36.2789393,33.0916369 C36.479472,33.0916369 36.6486589,33.2633068 36.6486589,33.4663748 L36.6486589,38.7600058 C36.6486589,38.9708214 36.4830888,39.1424913 36.2789393,39.1424913" id="Fill-5"></path>
                    <path d="M5.92531963,32.4271806 L36.930329,32.4271806 L36.930329,25.3059379 C36.930329,25.2039961 36.8519645,25.1244816 36.7514972,25.1244816 L6.11178692,25.1244816 C6.01051589,25.1244816 5.92531963,25.207666 5.92531963,25.3059379 L5.92531963,32.4271806 Z M37.025572,32.6204621 L5.83007664,32.6204621 C5.77743178,32.6204621 5.73483364,32.5768311 5.73483364,32.5238214 L5.73483364,25.3059379 C5.73483364,25.0992 5.90402056,24.9312 6.11178692,24.9312 L36.7514972,24.9312 C36.9552449,24.9312 37.120815,25.0992 37.120815,25.3059379 L37.120815,32.5238214 C37.120815,32.5768311 37.0782168,32.6204621 37.025572,32.6204621 L37.025572,32.6204621 Z" id="Fill-6"></path>
                    <path d="M7.96255514,26.1987845 C7.87213458,26.1987845 7.79899439,26.2697359 7.79899439,26.3569981 L7.79899439,31.1947456 C7.79899439,31.2844544 7.87374206,31.3607068 7.96255514,31.3607068 C8.04333084,31.3607068 8.11124673,31.2844544 8.11124673,31.1947456 L8.11124673,26.3569981 C8.11124673,26.2697359 8.04453645,26.1987845 7.96255514,26.1987845 M7.96255514,31.5539883 C7.77046168,31.5539883 7.60850841,31.3892505 7.60850841,31.1947456 L7.60850841,26.3569981 C7.60850841,26.162901 7.76724673,26.0050951 7.96255514,26.0050951 C8.1494243,26.0050951 8.30173271,26.162901 8.30173271,26.3569981 L8.30173271,31.1947456 C8.30173271,31.3925126 8.1494243,31.5539883 7.96255514,31.5539883 M10.6510598,26.1987845 C10.5662654,26.1987845 10.4951346,26.271367 10.4951346,26.3569981 L10.4951346,31.1947456 C10.4951346,31.2832311 10.5678729,31.3607068 10.6510598,31.3607068 C10.7342467,31.3607068 10.8073869,31.2832311 10.8073869,31.1947456 L10.8073869,26.3569981 C10.8073869,26.271367 10.7358542,26.1987845 10.6510598,26.1987845 M10.6510598,31.5539883 C10.4633869,31.5539883 10.3046486,31.3892505 10.3046486,31.1947456 L10.3046486,26.3569981 C10.3046486,26.162901 10.4597701,26.0050951 10.6510598,26.0050951 C10.8423495,26.0050951 10.9978729,26.162901 10.9978729,26.3569981 L10.9978729,31.1947456 C10.9978729,31.3892505 10.8391346,31.5539883 10.6510598,31.5539883 M13.3472,26.1987845 C13.2599944,26.1987845 13.1836393,26.2725903 13.1836393,26.3569981 L13.1836393,31.1947456 C13.1836393,31.2799689 13.2628075,31.3607068 13.3472,31.3607068 C13.4279757,31.3607068 13.4958916,31.2844544 13.4958916,31.1947456 L13.4958916,26.3569981 C13.4958916,26.2697359 13.4291813,26.1987845 13.3472,26.1987845 M13.3472,31.5539883 C13.1587234,31.5539883 12.9931533,31.3859883 12.9931533,31.1947456 L12.9931533,26.3569981 C12.9931533,26.1665709 13.1551065,26.0050951 13.3472,26.0050951 C13.5340692,26.0050951 13.6863776,26.162901 13.6863776,26.3569981 L13.6863776,31.1947456 C13.6863776,31.3925126 13.5340692,31.5539883 13.3472,31.5539883 M16.0357047,26.1987845 C15.9565364,26.1987845 15.8870131,26.2725903 15.8870131,26.3569981 L15.8870131,31.1947456 C15.8870131,31.2799689 15.9593495,31.3607068 16.0357047,31.3607068 C16.1196953,31.3607068 16.1992654,31.2799689 16.1992654,31.1947456 L16.1992654,26.3569981 C16.1992654,26.2725903 16.1229103,26.1987845 16.0357047,26.1987845 M16.0357047,31.5539883 C15.8552654,31.5539883 15.6965271,31.3859883 15.6965271,31.1947456 L15.6965271,26.3569981 C15.6965271,26.1665709 15.8520505,26.0050951 16.0357047,26.0050951 C16.2273963,26.0050951 16.3897514,26.1665709 16.3897514,26.3569981 L16.3897514,31.1947456 C16.3897514,31.3859883 16.2241813,31.5539883 16.0357047,31.5539883 M26.8198636,26.1987845 C26.7298449,26.1987845 26.6563028,26.2697359 26.6563028,26.3569981 L26.6563028,31.1947456 C26.6563028,31.2844544 26.7314523,31.3607068 26.8198636,31.3607068 C26.8962187,31.3607068 26.9685551,31.2799689 26.9685551,31.1947456 L26.9685551,26.3569981 C26.9685551,26.2725903 26.8990318,26.1987845 26.8198636,26.1987845 M26.8198636,31.5539883 C26.628172,31.5539883 26.4658168,31.3892505 26.4658168,31.1947456 L26.4658168,26.3569981 C26.4658168,26.162901 26.6245551,26.0050951 26.8198636,26.0050951 C27.0035178,26.0050951 27.1590411,26.1665709 27.1590411,26.3569981 L27.1590411,31.1947456 C27.1590411,31.3859883 27.0007047,31.5539883 26.8198636,31.5539883 M29.5083682,26.1987845 C29.4239757,26.1987845 29.352443,26.271367 29.352443,26.3569981 L29.352443,31.1947456 C29.352443,31.2832311 29.4251813,31.3607068 29.5083682,31.3607068 C29.5915551,31.3607068 29.6646953,31.2832311 29.6646953,31.1947456 L29.6646953,26.3569981 C29.6646953,26.271367 29.5931626,26.1987845 29.5083682,26.1987845 M29.5083682,31.5539883 C29.3206953,31.5539883 29.161957,31.3892505 29.161957,31.1947456 L29.161957,26.3569981 C29.161957,26.162901 29.3174804,26.0050951 29.5083682,26.0050951 C29.6996579,26.0050951 29.8551813,26.162901 29.8551813,26.3569981 L29.8551813,31.1947456 C29.8551813,31.3892505 29.696443,31.5539883 29.5083682,31.5539883 M32.2045084,26.1987845 C32.1201159,26.1987845 32.0485832,26.271367 32.0485832,26.3569981 L32.0485832,31.1947456 C32.0485832,31.2832311 32.1213215,31.3607068 32.2045084,31.3607068 C32.2876953,31.3607068 32.3604336,31.2832311 32.3604336,31.1947456 L32.3604336,26.3569981 C32.3604336,26.271367 32.2893028,26.1987845 32.2045084,26.1987845 M32.2045084,31.5539883 C32.0168355,31.5539883 31.8580972,31.3892505 31.8580972,31.1947456 L31.8580972,26.3569981 C31.8580972,26.162901 32.0136206,26.0050951 32.2045084,26.0050951 C32.3953963,26.0050951 32.5513215,26.162901 32.5513215,26.3569981 L32.5513215,31.1947456 C32.5513215,31.3892505 32.3925832,31.5539883 32.2045084,31.5539883 M34.8930131,26.1987845 C34.8114336,26.1987845 34.7447234,26.2697359 34.7447234,26.3569981 L34.7447234,31.1947456 C34.7447234,31.2844544 34.8126393,31.3607068 34.8930131,31.3607068 C34.9818262,31.3607068 35.0565738,31.2844544 35.0565738,31.1947456 L35.0565738,26.3569981 C35.0565738,26.2697359 34.9834336,26.1987845 34.8930131,26.1987845 M34.8930131,31.5539883 C34.7061439,31.5539883 34.5538355,31.3925126 34.5538355,31.1947456 L34.5538355,26.3569981 C34.5538355,26.162901 34.7061439,26.0050951 34.8930131,26.0050951 C35.0883215,26.0050951 35.2474617,26.162901 35.2474617,26.3569981 L35.2474617,31.1947456 C35.2474617,31.3892505 35.0851065,31.5539883 34.8930131,31.5539883" id="Fill-7"></path>
                    <path d="M8.45388037,24.9312816 L34.4017682,24.9312816 L34.4017682,18.9693204 C34.4017682,18.8971456 34.3358617,18.8339417 34.2607121,18.8339417 L8.59493645,18.8339417 C8.51978692,18.8339417 8.45388037,18.8971456 8.45388037,18.9693204 L8.45388037,24.9312816 Z M34.4970112,25.1245631 L8.35863738,25.1245631 C8.30599252,25.1245631 8.26339439,25.080932 8.26339439,25.0275146 L8.26339439,18.9693204 C8.26339439,18.7911262 8.41530093,18.6406602 8.59493645,18.6406602 L34.2607121,18.6406602 C34.4403477,18.6406602 34.5922542,18.7911262 34.5922542,18.9693204 L34.5922542,25.0275146 C34.5922542,25.080932 34.5496561,25.1245631 34.4970112,25.1245631 L34.4970112,25.1245631 Z" id="Fill-8"></path>
                    <path d="M10.1408467,19.7457903 C10.0865944,19.7457903 10.0303327,19.7877903 10.0303327,19.8579262 L10.0303327,23.9070524 C10.0303327,23.9804505 10.0886037,24.0350913 10.1408467,24.0350913 C10.2099682,24.0350913 10.2662299,23.9775961 10.2662299,23.9070524 L10.2662299,19.8579262 C10.2662299,19.7808583 10.2011271,19.7457903 10.1408467,19.7457903 M10.1408467,24.227965 C9.97768785,24.227965 9.83984673,24.0811689 9.83984673,23.9070524 L9.83984673,19.8579262 C9.83984673,19.6895184 9.97487477,19.5525087 10.1408467,19.5525087 C10.3208841,19.5525087 10.4571178,19.6838097 10.4571178,19.8579262 L10.4571178,23.9070524 C10.4571178,24.0840233 10.3152579,24.227965 10.1408467,24.227965 M12.4029682,19.7457903 C12.3310336,19.7457903 12.2848187,19.7894214 12.2848187,19.8579262 L12.2848187,23.9070524 C12.2848187,23.9800427 12.3354542,24.0350913 12.4029682,24.0350913 C12.4636505,24.0350913 12.5130804,23.9775961 12.5130804,23.9070524 L12.5130804,19.8579262 C12.5130804,19.791868 12.468071,19.7457903 12.4029682,19.7457903 M12.4029682,24.227965 C12.2297626,24.227965 12.0943327,24.0868777 12.0943327,23.9070524 L12.0943327,19.8579262 C12.0943327,19.6838097 12.2269495,19.5525087 12.4029682,19.5525087 C12.5745664,19.5525087 12.7035664,19.6838097 12.7035664,19.8579262 L12.7035664,23.9070524 C12.7035664,24.0840233 12.5689402,24.227965 12.4029682,24.227965 M14.6570523,19.7457903 C14.5923514,19.7457903 14.5469402,19.791868 14.5469402,19.8579262 L14.5469402,23.9070524 C14.5469402,23.9775961 14.5963701,24.0350913 14.6570523,24.0350913 C14.7245664,24.0350913 14.7752019,23.9800427 14.7752019,23.9070524 L14.7752019,19.8579262 C14.7752019,19.7894214 14.7289869,19.7457903 14.6570523,19.7457903 M14.6570523,24.227965 C14.4914822,24.227965 14.3564542,24.0840233 14.3564542,23.9070524 L14.3564542,19.8579262 C14.3564542,19.6838097 14.4858561,19.5525087 14.6570523,19.5525087 C14.833071,19.5525087 14.9656879,19.6838097 14.9656879,19.8579262 L14.9656879,23.9070524 C14.9656879,24.0868777 14.8302579,24.227965 14.6570523,24.227965 M16.9191738,19.7457903 C16.8472393,19.7457903 16.8010243,19.7894214 16.8010243,19.8579262 L16.8010243,23.9070524 C16.8010243,23.9800427 16.8516598,24.0350913 16.9191738,24.0350913 C16.9802579,24.0350913 17.0296879,23.9775961 17.0296879,23.9070524 L17.0296879,19.8579262 C17.0296879,19.7804505 16.973828,19.7457903 16.9191738,19.7457903 M16.9191738,24.227965 C16.7463701,24.227965 16.6105383,24.0868777 16.6105383,23.9070524 L16.6105383,19.8579262 C16.6105383,19.6838097 16.7431551,19.5525087 16.9191738,19.5525087 C17.090772,19.5525087 17.2201738,19.6838097 17.2201738,19.8579262 L17.2201738,23.9070524 C17.2201738,24.0840233 17.0851458,24.227965 16.9191738,24.227965 M25.9367159,19.7457903 C25.8820617,19.7457903 25.8262019,19.7877903 25.8262019,19.8579262 L25.8262019,23.9070524 C25.8262019,23.9804505 25.8844729,24.0350913 25.9367159,24.0350913 C26.0058374,24.0350913 26.0620991,23.9775961 26.0620991,23.9070524 L26.0620991,19.8579262 C26.0620991,19.7808583 25.9969963,19.7457903 25.9367159,19.7457903 M25.9367159,24.227965 C25.773557,24.227965 25.6357159,24.0811689 25.6357159,23.9070524 L25.6357159,19.8579262 C25.6357159,19.6895184 25.7707439,19.5525087 25.9367159,19.5525087 C26.1167533,19.5525087 26.252585,19.6838097 26.252585,19.8579262 L26.252585,23.9070524 C26.252585,24.0840233 26.1107252,24.227965 25.9367159,24.227965 M28.1984355,19.7457903 C28.1269028,19.7457903 28.0806879,19.7894214 28.0806879,19.8579262 L28.0806879,23.9070524 C28.0806879,23.9800427 28.1313234,24.0350913 28.1984355,24.0350913 C28.2595196,24.0350913 28.3089495,23.9775961 28.3089495,23.9070524 L28.3089495,19.8579262 C28.3089495,19.791868 28.2635383,19.7457903 28.1984355,19.7457903 M28.1984355,24.227965 C28.0256318,24.227965 27.8902019,24.0868777 27.8902019,23.9070524 L27.8902019,19.8579262 C27.8902019,19.6838097 28.0228187,19.5525087 28.1984355,19.5525087 C28.3700336,19.5525087 28.4994355,19.6838097 28.4994355,19.8579262 L28.4994355,23.9070524 C28.4994355,24.0840233 28.3644075,24.227965 28.1984355,24.227965 M30.4529215,19.7457903 C30.3878187,19.7457903 30.3424075,19.791868 30.3424075,19.8579262 L30.3424075,23.9070524 C30.3424075,23.9775961 30.3918374,24.0350913 30.4529215,24.0350913 C30.5200336,24.0350913 30.5706692,23.9800427 30.5706692,23.9070524 L30.5706692,19.8579262 C30.5706692,19.7894214 30.5244542,19.7457903 30.4529215,19.7457903 M30.4529215,24.227965 C30.2869495,24.227965 30.1519215,24.0840233 30.1519215,23.9070524 L30.1519215,19.8579262 C30.1519215,19.6838097 30.2813234,19.5525087 30.4529215,19.5525087 C30.6285383,19.5525087 30.761557,19.6838097 30.761557,19.8579262 L30.761557,23.9070524 C30.761557,24.0868777 30.6257252,24.227965 30.4529215,24.227965 M32.7146411,19.7457903 C32.6431084,19.7457903 32.5968935,19.7894214 32.5968935,19.8579262 L32.5968935,23.9070524 C32.5968935,23.9800427 32.647529,24.0350913 32.7146411,24.0350913 C32.7757252,24.0350913 32.8251551,23.9775961 32.8251551,23.9070524 L32.8251551,19.8579262 C32.8251551,19.7804505 32.7696972,19.7457903 32.7146411,19.7457903 M32.7146411,24.227965 C32.5418374,24.227965 32.4064075,24.0868777 32.4064075,23.9070524 L32.4064075,19.8579262 C32.4064075,19.6838097 32.5390243,19.5525087 32.7146411,19.5525087 C32.8866411,19.5525087 33.0156411,19.6838097 33.0156411,19.8579262 L33.0156411,23.9070524 C33.0156411,24.0840233 32.8806131,24.227965 32.7146411,24.227965" id="Fill-9"></path>
                    <path d="M10.7463832,18.6407417 L32.1093458,18.6407417 L32.1093458,13.7528388 C32.1093458,13.6957515 32.0591121,13.6561981 32.0141028,13.6561981 L10.8492617,13.6561981 C10.7893832,13.6561981 10.7463832,13.6969748 10.7463832,13.7528388 L10.7463832,18.6407417 Z M32.2045888,18.8340233 L10.6511402,18.8340233 C10.5984953,18.8340233 10.5558972,18.7903922 10.5558972,18.7369748 L10.5558972,13.7528388 C10.5558972,13.5901398 10.6844953,13.4629165 10.8492617,13.4629165 L32.0141028,13.4629165 C32.1688224,13.4629165 32.2998318,13.5958485 32.2998318,13.7528388 L32.2998318,18.7369748 C32.2998318,18.7903922 32.2572336,18.8340233 32.2045888,18.8340233 L32.2045888,18.8340233 Z" id="Fill-10"></path>
                    <path d="M12.1211374,14.3982117 C12.0805486,14.3982117 12.0411654,14.4345029 12.0411654,14.4716097 L12.0411654,17.8254932 C12.0411654,17.8650466 12.0821561,17.9066388 12.1211374,17.9066388 C12.1661467,17.9066388 12.1934738,17.8654544 12.1934738,17.8254932 L12.1934738,14.4716097 C12.1934738,14.4406194 12.1681561,14.3982117 12.1211374,14.3982117 M12.1211374,18.0995126 C11.9772682,18.0995126 11.8506794,17.9718816 11.8506794,17.8254932 L11.8506794,14.4716097 C11.8506794,14.3268524 11.9744551,14.2049301 12.1211374,14.2049301 C12.2658103,14.2049301 12.3839598,14.3244058 12.3839598,14.4716097 L12.3839598,17.8254932 C12.3839598,17.976367 12.2658103,18.0995126 12.1211374,18.0995126 M13.9870159,14.3982117 C13.9420065,14.3982117 13.9070439,14.4304252 13.9070439,14.4716097 L13.9070439,17.8254932 C13.9070439,17.8638233 13.9395953,17.9066388 13.9870159,17.9066388 C14.023586,17.9066388 14.0593523,17.8666777 14.0593523,17.8254932 L14.0593523,14.4716097 C14.0593523,14.4393961 14.0251935,14.3982117 13.9870159,14.3982117 M13.9870159,18.0995126 C13.8403336,18.0995126 13.7165579,17.9743282 13.7165579,17.8254932 L13.7165579,14.4716097 C13.7165579,14.3244058 13.8379224,14.2049301 13.9870159,14.2049301 C14.1268664,14.2049301 14.2498383,14.3297068 14.2498383,14.4716097 L14.2498383,17.8254932 C14.2498383,17.9743282 14.1296794,18.0995126 13.9870159,18.0995126 M15.8452589,14.3982117 C15.805072,14.3982117 15.7652869,14.4345029 15.7652869,14.4716097 L15.7652869,17.8254932 C15.7652869,17.8650466 15.8062776,17.9066388 15.8452589,17.9066388 C15.8906701,17.9066388 15.9175953,17.8654544 15.9175953,17.8254932 L15.9175953,14.4716097 C15.9175953,14.4406194 15.8926794,14.3982117 15.8452589,14.3982117 M15.8452589,18.0995126 C15.7013897,18.0995126 15.5748009,17.9718816 15.5748009,17.8254932 L15.5748009,14.4716097 C15.5748009,14.3268524 15.6985766,14.2049301 15.8452589,14.2049301 C15.9899318,14.2049301 16.1080813,14.3244058 16.1080813,14.4716097 L16.1080813,17.8254932 C16.1080813,17.976367 15.9899318,18.0995126 15.8452589,18.0995126 M17.7111374,14.3982117 C17.6665299,14.3982117 17.6311654,14.4304252 17.6311654,14.4716097 L17.6311654,17.8254932 C17.6311654,17.8638233 17.6641187,17.9066388 17.7111374,17.9066388 C17.7412776,17.9066388 17.7834738,17.8658621 17.7834738,17.8254932 L17.7834738,14.4716097 C17.7834738,14.4393961 17.749315,14.3982117 17.7111374,14.3982117 M17.7111374,18.0995126 C17.5624458,18.0995126 17.4406794,17.976367 17.4406794,17.8254932 L17.4406794,14.4716097 C17.4406794,14.3244058 17.5624458,14.2049301 17.7111374,14.2049301 C17.8509879,14.2049301 17.9739598,14.3297068 17.9739598,14.4716097 L17.9739598,17.8254932 C17.9739598,17.9690272 17.8485766,18.0995126 17.7111374,18.0995126 M25.1445112,14.3982117 C25.1059318,14.3982117 25.0721748,14.4324641 25.0721748,14.4716097 L25.0721748,17.8254932 C25.0721748,17.8666777 25.1079411,17.9066388 25.1445112,17.9066388 C25.1915299,17.9066388 25.2240813,17.8638233 25.2240813,17.8254932 L25.2240813,14.4716097 C25.2240813,14.4381728 25.1887168,14.3982117 25.1445112,14.3982117 M25.1445112,18.0995126 C25.0018477,18.0995126 24.8816888,17.9743282 24.8816888,17.8254932 L24.8816888,14.4716097 C24.8816888,14.3244058 24.9994364,14.2049301 25.1445112,14.2049301 C25.2907916,14.2049301 25.4149692,14.3268524 25.4149692,14.4716097 L25.4149692,17.8254932 C25.4149692,17.976367 25.2936047,18.0995126 25.1445112,18.0995126 M27.0103897,14.3982117 C26.9605579,14.3982117 26.9380533,14.436134 26.9380533,14.4716097 L26.9380533,17.8254932 C26.9380533,17.8654544 26.9653804,17.9066388 27.0103897,17.9066388 C27.0489692,17.9066388 27.0903617,17.8650466 27.0903617,17.8254932 L27.0903617,14.4716097 C27.0903617,14.4406194 27.0497729,14.3982117 27.0103897,14.3982117 M27.0103897,18.0995126 C26.865315,18.0995126 26.7475673,17.976367 26.7475673,17.8254932 L26.7475673,14.4716097 C26.7475673,14.3219592 26.8633056,14.2049301 27.0103897,14.2049301 C27.1518477,14.2049301 27.2808477,14.3321534 27.2808477,14.4716097 L27.2808477,17.8254932 C27.2808477,17.9718816 27.1542589,18.0995126 27.0103897,18.0995126 M28.8686327,14.3982117 C28.8284458,14.3982117 28.7886607,14.4345029 28.7886607,14.4716097 L28.7886607,17.8254932 C28.7886607,17.8650466 28.8300533,17.9066388 28.8686327,17.9066388 C28.9160533,17.9066388 28.9486047,17.8638233 28.9486047,17.8254932 L28.9486047,14.4716097 C28.9486047,14.4381728 28.9132402,14.3982117 28.8686327,14.3982117 M28.8686327,18.0995126 C28.7247636,18.0995126 28.5981748,17.9718816 28.5981748,17.8254932 L28.5981748,14.4716097 C28.5981748,14.3268524 28.7223523,14.2049301 28.8686327,14.2049301 C29.015315,14.2049301 29.1390907,14.3268524 29.1390907,14.4716097 L29.1390907,17.8254932 C29.1390907,17.976367 29.0177262,18.0995126 28.8686327,18.0995126 M30.7345112,14.3982117 C30.6899037,14.3982117 30.6545393,14.4304252 30.6545393,14.4716097 L30.6545393,17.8254932 C30.6545393,17.8638233 30.6874925,17.9066388 30.7345112,17.9066388 C30.7734925,17.9066388 30.814885,17.8650466 30.814885,17.8254932 L30.814885,14.4716097 C30.814885,14.4406194 30.7742963,14.3982117 30.7345112,14.3982117 M30.7345112,18.0995126 C30.5882308,18.0995126 30.4644551,17.9743282 30.4644551,17.8254932 L30.4644551,14.4716097 C30.4644551,14.3244058 30.5854178,14.2049301 30.7345112,14.2049301 C30.8759692,14.2049301 31.0049692,14.3321534 31.0049692,14.4716097 L31.0049692,17.8254932 C31.0049692,17.9718816 30.8787822,18.0995126 30.7345112,18.0995126" id="Fill-11"></path>
                    <path d="M12.4980907,13.462835 L30.3575579,13.462835 L30.3575579,9.37130097 C30.3575579,9.33990291 30.3314364,9.30565049 30.292857,9.30565049 L12.5627916,9.30565049 C12.5314458,9.30565049 12.4980907,9.33949515 12.4980907,9.37130097 L12.4980907,13.462835 Z M30.4528009,13.6565243 L12.4028477,13.6565243 C12.3502028,13.6565243 12.3076047,13.6128932 12.3076047,13.5594757 L12.3076047,9.37130097 C12.3076047,9.23347573 12.4269598,9.11236893 12.5627916,9.11236893 L30.292857,9.11236893 C30.4335112,9.11236893 30.5480439,9.22858252 30.5480439,9.37130097 L30.5480439,13.5594757 C30.5480439,13.6128932 30.5054458,13.6565243 30.4528009,13.6565243 L30.4528009,13.6565243 Z" id="Fill-12"></path>
                    <path d="M13.636586,9.93149126 C13.6060439,9.93149126 13.5871561,9.95718058 13.5871561,9.9816466 L13.5871561,12.7866757 C13.5871561,12.8180738 13.6056421,12.8372388 13.636586,12.8372388 C13.6602963,12.8372388 13.6860159,12.817666 13.6860159,12.7866757 L13.6860159,9.9816466 C13.6860159,9.95758835 13.6602963,9.93149126 13.636586,9.93149126 M13.636586,13.0305204 C13.4999505,13.0305204 13.3966701,12.9257243 13.3966701,12.7866757 L13.3966701,9.9816466 C13.3966701,9.84749126 13.504371,9.73780194 13.636586,9.73780194 C13.7643804,9.73780194 13.8765019,9.85238447 13.8765019,9.9816466 L13.8765019,12.7866757 C13.8765019,12.9208311 13.7688009,13.0305204 13.636586,13.0305204 M15.1902121,9.93149126 C15.1669037,9.93149126 15.1407822,9.95758835 15.1407822,9.9816466 L15.1407822,12.7866757 C15.1407822,12.817666 15.1665019,12.8372388 15.1902121,12.8372388 C15.2215579,12.8372388 15.2396421,12.8188893 15.2396421,12.7866757 L15.2396421,9.9816466 C15.2396421,9.95718058 15.2207542,9.93149126 15.1902121,9.93149126 M15.1902121,13.0305204 C15.0579972,13.0305204 14.9502963,12.9208311 14.9502963,12.7866757 L14.9502963,9.9816466 C14.9502963,9.85238447 15.0624178,9.73780194 15.1902121,9.73780194 C15.3224271,9.73780194 15.430128,9.84749126 15.430128,9.9816466 L15.430128,12.7866757 C15.430128,12.9257243 15.3272495,13.0305204 15.1902121,13.0305204 M16.7514738,9.93149126 C16.7209318,9.93149126 16.7020439,9.95718058 16.7020439,9.9816466 L16.7020439,12.7866757 C16.7020439,12.8188893 16.720128,12.8372388 16.7514738,12.8372388 C16.7751841,12.8372388 16.8013056,12.817666 16.8013056,12.7866757 L16.8013056,9.9816466 C16.8013056,9.95758835 16.7751841,9.93149126 16.7514738,9.93149126 M16.7514738,13.0305204 C16.6148383,13.0305204 16.5115579,12.9257243 16.5115579,12.7866757 L16.5115579,9.9816466 C16.5115579,9.84749126 16.6192589,9.73780194 16.7514738,9.73780194 C16.8792682,9.73780194 16.9913897,9.85238447 16.9913897,9.9816466 L16.9913897,12.7866757 C16.9913897,12.9208311 16.8836888,13.0305204 16.7514738,13.0305204 M18.3051,9.93149126 C18.2838009,9.93149126 18.2633056,9.95595728 18.2633056,9.9816466 L18.2633056,12.7866757 C18.2637075,12.8547728 18.3549318,12.8445786 18.3549318,12.7866757 L18.3549318,9.9816466 C18.3549318,9.95718058 18.3356421,9.93149126 18.3051,9.93149126 M18.3051,13.0305204 C18.1748944,13.0305204 18.0728196,12.9232777 18.0728196,12.7866757 L18.0728196,9.9816466 C18.0728196,9.84993786 18.179315,9.73780194 18.3051,9.73780194 C18.437315,9.73780194 18.5450159,9.84749126 18.5450159,9.9816466 L18.5450159,12.7866757 C18.5450159,12.9257243 18.4421374,13.0305204 18.3051,13.0305204 M24.5505486,9.93149126 C24.5183991,9.93149126 24.4934832,9.95840388 24.4934832,9.9816466 L24.4934832,12.7866757 C24.4934832,12.8506951 24.5995766,12.8539573 24.5999785,12.7866757 L24.5999785,9.9816466 C24.5999785,9.95758835 24.573857,9.93149126 24.5505486,9.93149126 M24.5505486,13.0305204 C24.4115019,13.0305204 24.3029972,12.9232777 24.3029972,12.7866757 L24.3029972,9.9816466 C24.3029972,9.84993786 24.4163243,9.73780194 24.5505486,9.73780194 C24.678343,9.73780194 24.7904645,9.85238447 24.7904645,9.9816466 L24.7904645,12.7866757 C24.7904645,12.9208311 24.6827636,13.0305204 24.5505486,13.0305204 M26.1041748,9.93149126 C26.0804645,9.93149126 26.0547449,9.95758835 26.0547449,9.9816466 L26.0547449,12.7866757 C26.0547449,12.817666 26.0804645,12.8372388 26.1041748,12.8372388 C26.1351187,12.8372388 26.1536047,12.8180738 26.1536047,12.7866757 L26.1536047,9.9816466 C26.1536047,9.95718058 26.1347168,9.93149126 26.1041748,9.93149126 M26.1041748,13.0305204 C25.9719598,13.0305204 25.8642589,12.9208311 25.8642589,12.7866757 L25.8642589,9.9816466 C25.8642589,9.85238447 25.9763804,9.73780194 26.1041748,9.73780194 C26.2363897,9.73780194 26.3440907,9.84749126 26.3440907,9.9816466 L26.3440907,12.7866757 C26.3440907,12.9257243 26.2408103,13.0305204 26.1041748,13.0305204 M27.6654364,9.93149126 C27.6348944,9.93149126 27.6160065,9.95718058 27.6160065,9.9816466 L27.6160065,12.7866757 C27.6160065,12.8188893 27.6340907,12.8372388 27.6654364,12.8372388 C27.6891467,12.8372388 27.7148664,12.817666 27.7148664,12.7866757 L27.7148664,9.9816466 C27.7148664,9.95758835 27.6891467,9.93149126 27.6654364,9.93149126 M27.6654364,13.0305204 C27.5283991,13.0305204 27.4255206,12.9257243 27.4255206,12.7866757 L27.4255206,9.9816466 C27.4255206,9.84749126 27.5332215,9.73780194 27.6654364,9.73780194 C27.7932308,9.73780194 27.9053523,9.85238447 27.9053523,9.9816466 L27.9053523,12.7866757 C27.9053523,12.9208311 27.7976514,13.0305204 27.6654364,13.0305204 M29.2190626,9.93149126 C29.1977636,9.93149126 29.1772682,9.95595728 29.1772682,9.9816466 L29.1772682,12.7866757 C29.1772682,12.8539573 29.2684925,12.8437631 29.2684925,12.7866757 L29.2684925,9.9816466 C29.2684925,9.95718058 29.2496047,9.93149126 29.2190626,9.93149126 M29.2190626,13.0305204 C29.088857,13.0305204 28.9867822,12.9232777 28.9867822,12.7866757 L28.9867822,9.9816466 C28.9867822,9.84993786 29.0932776,9.73780194 29.2190626,9.73780194 C29.3512776,9.73780194 29.4589785,9.84749126 29.4589785,9.9816466 L29.4589785,12.7866757 C29.4589785,12.9257243 29.3561,13.0305204 29.2190626,13.0305204" id="Fill-13"></path>
                    <path d="M14.7523355,9.11236893 L28.1032327,9.11236893 L28.1032327,6.08673786 C28.1032327,6.07287379 28.1012234,6.06023301 28.0767093,6.06023301 L14.7788589,6.06023301 C14.7543449,6.06023301 14.7523355,6.07287379 14.7523355,6.08673786 L14.7523355,9.11236893 Z M28.1984757,9.30565049 L14.6570925,9.30565049 C14.6044477,9.30565049 14.5618495,9.26201942 14.5618495,9.20860194 L14.5618495,6.08673786 C14.5618495,5.95951456 14.6530738,5.86654369 14.7788589,5.86654369 L28.0767093,5.86654369 C28.2024944,5.86654369 28.2937187,5.95951456 28.2937187,6.08673786 L28.2937187,9.20860194 C28.2937187,9.26201942 28.2511206,9.30565049 28.1984757,9.30565049 L28.1984757,9.30565049 Z" id="Fill-14"></path>
                    <path d="M16.6906308,5.57311456 C16.637986,5.57311456 16.5953879,5.52989126 16.5953879,5.47647379 L16.5953879,3.71410485 C16.5953879,3.66150291 16.637986,3.61787184 16.6906308,3.61787184 C16.7432757,3.61787184 16.7858738,3.66150291 16.7858738,3.71410485 L16.7858738,5.47647379 C16.7858738,5.52989126 16.7432757,5.57311456 16.6906308,5.57311456 L16.6906308,5.57311456 Z M17.719014,5.57311456 C17.6663692,5.57311456 17.6233692,5.52989126 17.6233692,5.47647379 L17.6233692,3.71410485 C17.6233692,3.66150291 17.6663692,3.61787184 17.719014,3.61787184 C17.771257,3.61787184 17.8138551,3.66150291 17.8138551,3.71410485 L17.8138551,5.47647379 C17.8138551,5.52989126 17.771257,5.57311456 17.719014,5.57311456 L17.719014,5.57311456 Z M18.7393598,5.57311456 C18.686715,5.57311456 18.6441168,5.52989126 18.6441168,5.47647379 L18.6441168,3.71410485 C18.6441168,3.66150291 18.686715,3.61787184 18.7393598,3.61787184 C18.7920047,3.61787184 18.8346028,3.66150291 18.8346028,3.71410485 L18.8346028,5.47647379 C18.8346028,5.52989126 18.7920047,5.57311456 18.7393598,5.57311456 L18.7393598,5.57311456 Z M19.7601075,5.57311456 C19.7070607,5.57311456 19.6644626,5.52989126 19.6644626,5.47647379 L19.6644626,3.71410485 C19.6644626,3.66150291 19.7070607,3.61787184 19.7601075,3.61787184 C19.8127523,3.61787184 19.8553505,3.66150291 19.8553505,3.71410485 L19.8553505,5.47647379 C19.8553505,5.52989126 19.8127523,5.57311456 19.7601075,5.57311456 L19.7601075,5.57311456 Z M23.0956215,5.57311456 C23.0433785,5.57311456 23.0003785,5.52989126 23.0003785,5.47647379 L23.0003785,3.71410485 C23.0003785,3.66150291 23.0433785,3.61787184 23.0956215,3.61787184 C23.1482664,3.61787184 23.1908645,3.66150291 23.1908645,3.71410485 L23.1908645,5.47647379 C23.1908645,5.52989126 23.1482664,5.57311456 23.0956215,5.57311456 L23.0956215,5.57311456 Z M24.1163692,5.57311456 C24.0637243,5.57311456 24.0211262,5.52989126 24.0211262,5.47647379 L24.0211262,3.71410485 C24.0211262,3.66150291 24.0637243,3.61787184 24.1163692,3.61787184 C24.169014,3.61787184 24.2116121,3.66150291 24.2116121,3.71410485 L24.2116121,5.47647379 C24.2116121,5.52989126 24.169014,5.57311456 24.1163692,5.57311456 L24.1163692,5.57311456 Z M25.1371168,5.57311456 C25.0840701,5.57311456 25.041472,5.52989126 25.041472,5.47647379 L25.041472,3.71410485 C25.041472,3.66150291 25.0840701,3.61787184 25.1371168,3.61787184 C25.1893598,3.61787184 25.2319579,3.66150291 25.2319579,3.71410485 L25.2319579,5.47647379 C25.2319579,5.52989126 25.1893598,5.57311456 25.1371168,5.57311456 L25.1371168,5.57311456 Z M26.1650981,5.57311456 C26.1124533,5.57311456 26.0698551,5.52989126 26.0698551,5.47647379 L26.0698551,3.71410485 C26.0698551,3.66150291 26.1124533,3.61787184 26.1650981,3.61787184 C26.217743,3.61787184 26.2599393,3.66150291 26.2599393,3.71410485 L26.2599393,5.47647379 C26.2599393,5.52989126 26.217743,5.57311456 26.1650981,5.57311456 L26.1650981,5.57311456 Z M15.8567523,5.8667068 L26.9989766,5.8667068 L26.9989766,3.33610485 L15.8615748,3.32387184 L15.8567523,5.8667068 Z M27.0942196,6.05998835 L15.7615093,6.05998835 C15.7088645,6.05998835 15.6662664,6.01676505 15.6662664,5.96334757 L15.6662664,3.33610485 C15.6662664,3.22274563 15.750257,3.13099806 15.8531355,3.13099806 L27.0029953,3.13099806 C27.1058738,3.13099806 27.1894626,3.22274563 27.1894626,3.33610485 L27.1894626,5.96334757 C27.1894626,6.01676505 27.1468645,6.05998835 27.0942196,6.05998835 L27.0942196,6.05998835 Z M15.7008271,8.71822136 C15.6477804,8.71822136 15.6051822,8.67459029 15.6051822,8.62158058 L15.6051822,6.55827961 C15.6051822,6.50486214 15.6477804,6.46163883 15.7008271,6.46163883 C15.7530701,6.46163883 15.7956682,6.50486214 15.7956682,6.55827961 L15.7956682,8.62158058 C15.7956682,8.67459029 15.7530701,8.71822136 15.7008271,8.71822136 L15.7008271,8.71822136 Z M16.9417991,8.71822136 C16.8895561,8.71822136 16.8465561,8.67459029 16.8465561,8.62158058 L16.8465561,6.55827961 C16.8465561,6.50486214 16.8895561,6.46163883 16.9417991,6.46163883 C16.9944439,6.46163883 17.0370421,6.50486214 17.0370421,6.55827961 L17.0370421,8.62158058 C17.0370421,8.67459029 16.9944439,8.71822136 16.9417991,8.71822136 L16.9417991,8.71822136 Z M18.1759393,8.71822136 C18.1228925,8.71822136 18.0802944,8.67459029 18.0802944,8.62158058 L18.0802944,6.55827961 C18.0802944,6.50486214 18.1228925,6.46163883 18.1759393,6.46163883 C18.2285841,6.46163883 18.2711822,6.50486214 18.2711822,6.55827961 L18.2711822,8.62158058 C18.2711822,8.67459029 18.2285841,8.71822136 18.1759393,8.71822136 L18.1759393,8.71822136 Z M19.4096776,8.71822136 C19.3570327,8.71822136 19.3144346,8.67459029 19.3144346,8.62158058 L19.3144346,6.55827961 C19.3144346,6.50486214 19.3570327,6.46163883 19.4096776,6.46163883 C19.4619206,6.46163883 19.5049206,6.50486214 19.5049206,6.55827961 L19.5049206,8.62158058 C19.5049206,8.67459029 19.4619206,8.71822136 19.4096776,8.71822136 L19.4096776,8.71822136 Z M23.4460514,8.71822136 C23.3934065,8.71822136 23.3508084,8.67459029 23.3508084,8.62158058 L23.3508084,6.55827961 C23.3508084,6.50486214 23.3934065,6.46163883 23.4460514,6.46163883 C23.4986963,6.46163883 23.5412944,6.50486214 23.5412944,6.55827961 L23.5412944,8.62158058 C23.5412944,8.67459029 23.4986963,8.71822136 23.4460514,8.71822136 L23.4460514,8.71822136 Z M24.6797897,8.71822136 C24.6275467,8.71822136 24.5845467,8.67459029 24.5845467,8.62158058 L24.5845467,6.55827961 C24.5845467,6.50486214 24.6275467,6.46163883 24.6797897,6.46163883 C24.7324346,6.46163883 24.7750327,6.50486214 24.7750327,6.55827961 L24.7750327,8.62158058 C24.7750327,8.67459029 24.7324346,8.71822136 24.6797897,8.71822136 L24.6797897,8.71822136 Z M25.913528,8.71822136 C25.8608832,8.71822136 25.818285,8.67459029 25.818285,8.62158058 L25.818285,6.55827961 C25.818285,6.50486214 25.8608832,6.46163883 25.913528,6.46163883 C25.9661729,6.46163883 26.008771,6.50486214 26.008771,6.55827961 L26.008771,8.62158058 C26.008771,8.67459029 25.9661729,8.71822136 25.913528,8.71822136 L25.913528,8.71822136 Z M27.1553037,8.71822136 C27.1026589,8.71822136 27.0596589,8.67459029 27.0596589,8.62158058 L27.0596589,6.55827961 C27.0596589,6.50486214 27.1026589,6.46163883 27.1553037,6.46163883 C27.2075467,6.46163883 27.2501449,6.50486214 27.2501449,6.55827961 L27.2501449,8.62158058 C27.2501449,8.67459029 27.2075467,8.71822136 27.1553037,8.71822136 L27.1553037,8.71822136 Z" id="Fill-15"></path>
                    <path d="M19.162086,39.6140738 L23.6935626,39.6140738 L23.6935626,33.644365 C23.6935626,33.5530252 23.6168056,33.4779961 23.5223664,33.4779961 L19.3332822,33.4779961 C19.238843,33.4779961 19.162086,33.5530252 19.162086,33.644365 L19.162086,39.6140738 Z M23.7888056,39.8073553 L19.066843,39.8073553 C19.0141981,39.8073553 18.9716,39.7637243 18.9716,39.7107146 L18.9716,33.644365 C18.9716,33.4461903 19.1339551,33.2851223 19.3332822,33.2851223 L23.5223664,33.2851223 C23.7216935,33.2851223 23.8840486,33.4461903 23.8840486,33.644365 L23.8840486,39.7107146 C23.8840486,39.7637243 23.8414505,39.8073553 23.7888056,39.8073553 L23.7888056,39.8073553 Z" id="Fill-16"></path>
                    <path d="M19.4362009,32.4271806 L23.419528,32.4271806 L23.419528,27.1686175 C23.419528,27.0899184 23.3632664,27.0328311 23.2861075,27.0328311 L19.5696215,27.0328311 C19.4924626,27.0328311 19.4362009,27.0899184 19.4362009,27.1686175 L19.4362009,32.4271806 Z M23.514771,32.6204621 L19.3409579,32.6204621 C19.2883131,32.6204621 19.245715,32.5768311 19.245715,32.5238214 L19.245715,27.1686175 C19.245715,26.983899 19.3879766,26.8399573 19.5696215,26.8399573 L23.2861075,26.8399573 C23.4677523,26.8399573 23.610014,26.983899 23.610014,27.1686175 L23.610014,32.5238214 C23.610014,32.5768311 23.5674159,32.6204621 23.514771,32.6204621 L23.514771,32.6204621 Z" id="Fill-17"></path>
                    <path d="M19.4364019,32.4272621 L23.419729,32.4272621 L23.419729,31.2064078 L19.4364019,31.2064078 L19.4364019,32.4272621 Z M23.5145701,32.6201359 L19.3411589,32.6201359 C19.288514,32.6201359 19.245514,32.5769126 19.245514,32.5239029 L19.245514,31.1093592 C19.245514,31.0563495 19.288514,31.0131262 19.3411589,31.0131262 L23.5145701,31.0131262 C23.567215,31.0131262 23.6098131,31.0563495 23.6098131,31.1093592 L23.6098131,32.5239029 C23.6098131,32.5769126 23.567215,32.6201359 23.5145701,32.6201359 L23.5145701,32.6201359 Z" id="Fill-18"></path>
                    <path d="M19.7028813,24.9312816 L23.152928,24.9312816 L23.152928,20.3679612 C23.152928,20.3027184 23.0930495,20.2635728 23.0347785,20.2635728 L19.8133953,20.2635728 C19.7599467,20.2635728 19.7028813,20.305165 19.7028813,20.3679612 L19.7028813,24.9312816 Z M23.248171,25.1245631 L19.6076383,25.1245631 C19.5549935,25.1245631 19.5123953,25.080932 19.5123953,25.0275146 L19.5123953,20.3679612 C19.5123953,20.2040388 19.6474234,20.0702913 19.8133953,20.0702913 L23.0347785,20.0702913 C23.2047692,20.0702913 23.343414,20.2040388 23.343414,20.3679612 L23.343414,25.0275146 C23.343414,25.080932 23.3008159,25.1245631 23.248171,25.1245631 L23.248171,25.1245631 Z" id="Fill-19"></path>
                    <path d="M19.7028411,24.9312816 L23.1528879,24.9312816 L23.1528879,23.8959612 L19.7028411,23.8959612 L19.7028411,24.9312816 Z M23.2481308,25.1245631 L19.6075981,25.1245631 C19.5549533,25.1245631 19.5123551,25.080932 19.5123551,25.0275146 L19.5123551,23.7993204 C19.5123551,23.7459029 19.5549533,23.7022718 19.6075981,23.7022718 L23.2481308,23.7022718 C23.3007757,23.7022718 23.3433738,23.7459029 23.3433738,23.7993204 L23.3433738,25.0275146 C23.3433738,25.080932 23.3007757,25.1245631 23.2481308,25.1245631 L23.2481308,25.1245631 Z" id="Fill-20"></path>
                    <path d="M19.9770364,18.6407417 L22.8785318,18.6407417 L22.8785318,14.7804117 C22.8785318,14.7420816 22.8459804,14.6996738 22.7985598,14.6996738 L20.0570084,14.6996738 C20.0180271,14.6996738 19.9770364,14.741266 19.9770364,14.7804117 L19.9770364,18.6407417 Z M22.9741766,18.8340233 L19.8817935,18.8340233 C19.8291486,18.8340233 19.7865505,18.7903922 19.7865505,18.7369748 L19.7865505,14.7804117 C19.7865505,14.6344311 19.9127374,14.5063922 20.0570084,14.5063922 L22.7985598,14.5063922 C22.9452421,14.5063922 23.0690178,14.6319845 23.0690178,14.7804117 L23.0690178,18.7369748 C23.0690178,18.7903922 23.0264196,18.8340233 22.9741766,18.8340233 L22.9741766,18.8340233 Z" id="Fill-21"></path>
                    <path d="M19.9769159,18.6406602 L22.8784112,18.6406602 L22.8784112,17.790466 L19.9769159,17.790466 L19.9769159,18.6406602 Z M22.9740561,18.8339417 L19.8816729,18.8339417 C19.829028,18.8339417 19.7864299,18.7903107 19.7864299,18.737301 L19.7864299,17.6938252 C19.7864299,17.6408155 19.829028,17.5975922 19.8816729,17.5975922 L22.9740561,17.5975922 C23.0267009,17.5975922 23.0692991,17.6408155 23.0692991,17.6938252 L23.0692991,18.737301 C23.0692991,18.7903107 23.0267009,18.8339417 22.9740561,18.8339417 L22.9740561,18.8339417 Z" id="Fill-22"></path>
                    <path d="M20.2511514,13.462835 L22.5968617,13.462835 L22.5968617,10.2985631 C22.5968617,10.270835 22.574357,10.248 22.5627028,10.248 L20.3005813,10.248 C20.2700393,10.248 20.2511514,10.2745049 20.2511514,10.2985631 L20.2511514,13.462835 Z M22.6921047,13.6565243 L20.1559084,13.6565243 C20.1032636,13.6565243 20.0606654,13.6128932 20.0606654,13.5594757 L20.0606654,10.2985631 C20.0606654,10.1644078 20.1683664,10.0551262 20.3005813,10.0551262 L22.5627028,10.0551262 C22.6844692,10.0551262 22.7873477,10.1664466 22.7873477,10.2985631 L22.7873477,13.5594757 C22.7873477,13.6128932 22.7447495,13.6565243 22.6921047,13.6565243 L22.6921047,13.6565243 Z" id="Fill-23"></path>
                    <path d="M20.2509907,13.462835 L22.5967009,13.462835 L22.5967009,12.7985825 L20.2509907,12.7985825 L20.2509907,13.462835 Z M22.6923458,13.6565243 L20.1561495,13.6565243 C20.1035047,13.6565243 20.0605047,13.6128932 20.0605047,13.5594757 L20.0605047,12.7019417 C20.0605047,12.6485243 20.1035047,12.6048932 20.1561495,12.6048932 L22.6923458,12.6048932 C22.7445888,12.6048932 22.7871869,12.6485243 22.7871869,12.7019417 L22.7871869,13.5594757 C22.7871869,13.6128932 22.7445888,13.6565243 22.6923458,13.6565243 L22.6923458,13.6565243 Z" id="Fill-24"></path>
                    <path d="M20.5258692,9.11236893 L22.3302617,9.11236893 L22.3302617,6.65842718 C22.3302617,6.65027184 22.3198131,6.6396699 22.3113738,6.6396699 L20.5367196,6.6396699 L20.5258692,9.11236893 Z M22.4255047,9.30565049 L20.4302243,9.30565049 C20.3775794,9.30565049 20.3349813,9.26201942 20.3349813,9.20860194 L20.3349813,6.65842718 C20.3349813,6.54547573 20.4294206,6.44638835 20.5367196,6.44638835 L22.3113738,6.44638835 C22.4247009,6.44638835 22.5207477,6.54343689 22.5207477,6.65842718 L22.5207477,9.20860194 C22.5207477,9.26201942 22.4781495,9.30565049 22.4255047,9.30565049 L22.4255047,9.30565049 Z" id="Fill-25"></path>
                    <path d="M20.5254673,9.21669221 L22.3302617,9.21669221 L22.3302617,8.66323012 L20.5254673,8.66323012 L20.5254673,9.21669221 Z M22.4255047,9.43996117 L20.4302243,9.43996117 C20.3775794,9.43996117 20.3349813,9.38956079 20.3349813,9.32785565 L20.3349813,8.55159564 C20.3349813,8.48989051 20.3775794,8.43996117 20.4302243,8.43996117 L22.4255047,8.43996117 C22.4781495,8.43996117 22.5207477,8.48989051 22.5207477,8.55159564 L22.5207477,9.32785565 C22.5207477,9.38956079 22.4781495,9.43996117 22.4255047,9.43996117 L22.4255047,9.43996117 Z" id="Fill-26"></path>
                    <path d="M20.7988187,5.86658447 L22.0558654,5.86658447 L22.0558654,4.11237087 L20.7879682,4.11237087 L20.7988187,5.86658447 Z M22.1515103,6.06027379 L20.7043794,6.06027379 C20.6517346,6.06027379 20.6091364,6.01664272 20.6091364,5.96322524 L20.6091364,4.09279806 C20.6091364,3.99534175 20.6879028,3.91949709 20.7879682,3.91949709 L22.0751551,3.91949709 C22.1695944,3.91949709 22.2467533,3.99697282 22.2467533,4.09279806 L22.2467533,5.96322524 C22.2467533,6.01664272 22.2041551,6.06027379 22.1515103,6.06027379 L22.1515103,6.06027379 Z" id="Fill-27"></path>
                    <path d="M20.7995421,6.09052423 L22.055785,6.09052423 L22.055785,5.65272802 L20.7995421,5.65272802 L20.7995421,6.09052423 Z M22.1514299,6.37192233 L20.7042991,6.37192233 C20.6516542,6.37192233 20.6090561,6.3085337 20.6090561,6.23092707 L20.6090561,5.51232517 C20.6090561,5.43531096 20.6516542,5.37192233 20.7042991,5.37192233 L22.1514299,5.37192233 C22.2040748,5.37192233 22.2466729,5.43531096 22.2466729,5.51232517 L22.2466729,6.23092707 C22.2466729,6.3085337 22.2040748,6.37192233 22.1514299,6.37192233 L22.1514299,6.37192233 Z" id="Fill-28"></path>
                    <path d="M16.1916299,3.13087573 L26.6639383,3.13087573 L26.6639383,0.770312621 C26.6269664,0.502001942 26.4875178,0.298118447 26.2821626,0.22308932 C26.1668262,0.18108932 26.038228,0.183943689 25.9116393,0.228798058 C26.0792187,0.251225243 26.2158542,0.320545631 26.3102935,0.436351456 C26.4569757,0.614545631 26.480686,0.880001942 26.372985,1.14790485 C26.2218822,1.52305049 25.7806299,1.95242913 24.9953776,2.03316699 L24.9937701,2.03316699 C24.4757607,2.09473981 23.7986112,2.13837087 23.0563589,2.16406019 C23.0491252,2.1652835 23.0422935,2.16487573 23.0350598,2.16487573 C22.0058729,2.19953592 20.8529103,2.19953592 19.8221159,2.16446796 C19.8140785,2.16487573 19.8056393,2.16487573 19.7980037,2.16365243 C19.3374617,2.14815728 18.9022374,2.12491456 18.5136299,2.09514757 C18.5120224,2.09514757 18.510415,2.09514757 18.5088075,2.09473981 C18.2741159,2.07679806 18.0567047,2.05640971 17.8613963,2.03316699 L17.8593869,2.03316699 C17.0753402,1.95283689 16.633686,1.52345825 16.4825832,1.14790485 C16.3752841,0.880001942 16.3985925,0.614545631 16.5452748,0.436351456 C16.6401159,0.320545631 16.7767514,0.251225243 16.943929,0.228798058 C16.8165364,0.183535922 16.6887421,0.18108932 16.5734056,0.22308932 C16.3680505,0.298118447 16.2286019,0.502001942 16.1908262,0.782953398 L16.1916299,3.13087573 Z M26.7587794,3.32415728 L16.0963869,3.32415728 C16.0437421,3.32415728 16.0011439,3.28052621 16.0011439,3.2275165 L16.0011439,0.770312621 C16.0497701,0.402506796 16.2346299,0.141128155 16.5091065,0.0412252427 C16.7855925,-0.0594932039 17.1086953,0.027361165 17.3723215,0.273652427 C17.4036673,0.303419417 17.4121065,0.350720388 17.3920131,0.389050485 C17.3723215,0.428196117 17.3301252,0.448176699 17.287929,0.439205825 C17.0154617,0.381302913 16.8028729,0.423302913 16.6915551,0.559497087 C16.590686,0.682234951 16.578228,0.874700971 16.6590037,1.0745068 C16.7823776,1.38196311 17.1396393,1.73182718 17.7757981,1.82806019 L17.7757981,0.151730097 C17.7757981,0.0987203883 17.8183963,0.0554970874 17.8710411,0.0554970874 C17.923686,0.0554970874 17.966686,0.0987203883 17.966686,0.151730097 L17.966686,1.85048738 C18.1085458,1.86639029 18.2612561,1.88147767 18.4232093,1.89452621 L18.4232093,0.151730097 C18.4232093,0.0987203883 18.4658075,0.0554970874 18.5184523,0.0554970874 C18.5710972,0.0554970874 18.6136953,0.0987203883 18.6136953,0.151730097 L18.6136953,1.90920583 C18.7599757,1.91980777 18.912686,1.92959417 19.0706206,1.93815728 L19.0706206,0.151730097 C19.0706206,0.0987203883 19.1132187,0.0554970874 19.1658636,0.0554970874 C19.2185084,0.0554970874 19.2611065,0.0987203883 19.2611065,0.151730097 L19.2611065,1.94835146 C19.4097981,1.9552835 19.5621065,1.96221553 19.7180318,1.9675165 L19.7180318,0.151730097 C19.7180318,0.0987203883 19.7606299,0.0554970874 19.8132748,0.0554970874 C19.8659196,0.0554970874 19.9085178,0.0987203883 19.9085178,0.151730097 L19.9085178,1.97444854 C20.058415,1.97934175 20.2111252,1.98341942 20.365443,1.98627379 L20.365443,0.151730097 C20.365443,0.0987203883 20.4080411,0.0554970874 20.460686,0.0554970874 C20.512929,0.0554970874 20.555929,0.0987203883 20.555929,0.151730097 L20.555929,1.98994369 C20.7070318,1.99279806 20.8597421,1.99483689 21.0128542,1.99606019 L21.0128542,0.151730097 C21.0128542,0.0987203883 21.0554523,0.0554970874 21.1080972,0.0554970874 C21.1607421,0.0554970874 21.2033402,0.0987203883 21.2033402,0.151730097 L21.2033402,1.9972835 C21.3556486,1.99809903 21.507957,1.99809903 21.6598636,1.9972835 L21.6598636,0.151730097 C21.6598636,0.0987203883 21.7024617,0.0554970874 21.7555084,0.0554970874 C21.8081533,0.0554970874 21.8507514,0.0987203883 21.8507514,0.151730097 L21.8507514,1.99606019 C22.0038636,1.99483689 22.156172,1.99279806 22.3072748,1.98994369 L22.3072748,0.151730097 C22.3072748,0.0987203883 22.3502748,0.0554970874 22.4029196,0.0554970874 C22.4551626,0.0554970874 22.4977607,0.0987203883 22.4977607,0.151730097 L22.4977607,1.98627379 C22.6496673,1.98341942 22.7995645,1.97934175 22.9470505,1.97444854 L22.9470505,0.151730097 C22.9470505,0.0987203883 22.9900505,0.0554970874 23.0422935,0.0554970874 C23.0949383,0.0554970874 23.1375364,0.0987203883 23.1375364,0.151730097 L23.1375364,1.96792427 C23.2934617,1.9626233 23.4457701,1.95569126 23.5944617,1.94875922 L23.5944617,0.151730097 C23.5944617,0.0987203883 23.6370598,0.0554970874 23.6897047,0.0554970874 C23.7423495,0.0554970874 23.7853495,0.0987203883 23.7853495,0.151730097 L23.7853495,1.93815728 C23.9428822,1.92959417 24.0955925,1.91980777 24.2418729,1.90961359 L24.2418729,0.151730097 C24.2418729,0.0987203883 24.284471,0.0554970874 24.3371159,0.0554970874 C24.3897607,0.0554970874 24.4323589,0.0987203883 24.4323589,0.151730097 L24.4323589,1.89493398 C24.5943121,1.88147767 24.7474243,1.86679806 24.8892841,1.85048738 L24.8892841,0.151730097 C24.8892841,0.0987203883 24.9318822,0.0554970874 24.9845271,0.0554970874 C25.037172,0.0554970874 25.0797701,0.0987203883 25.0797701,0.151730097 L25.0797701,1.82765243 C25.7167327,1.73141942 26.0731907,1.38155534 26.1969664,1.0745068 C26.2773402,0.874700971 26.2648822,0.682234951 26.1640131,0.559497087 C26.0522935,0.423302913 25.8401065,0.380895146 25.5680411,0.439205825 C25.5262467,0.448584466 25.4836486,0.428196117 25.4635551,0.389050485 C25.4438636,0.350720388 25.4519009,0.303419417 25.4836486,0.273652427 C25.7468729,0.027361165 26.0695738,-0.0594932039 26.3468636,0.0412252427 C26.6209383,0.141535922 26.8057981,0.402506796 26.8532187,0.757264078 L26.8544243,3.2275165 C26.8544243,3.28052621 26.8114243,3.32415728 26.7587794,3.32415728 L26.7587794,3.32415728 Z" id="Fill-29"></path>
                </g>
            </g>
        </g>
    </g>
</svg>