<?xml version="1.0" encoding="UTF-8"?>
<svg width="15px" height="15px" viewBox="0 0 15 15" version="1.1" xmlns="http://www.w3.org/2000/svg" xmlns:xlink="http://www.w3.org/1999/xlink">
    <!-- Generator: sketchtool 62 (101010) - https://sketch.com -->
    <title>7D7C316B-39E2-4B05-A72E-D7EC79009574</title>
    <desc>Created with sketchtool.</desc>
    <g id="Homepage-&amp;-Cubicle" stroke="none" stroke-width="1" fill="none" fill-rule="evenodd">
        <g id="Add-User" transform="translate(-1321.000000, -137.000000)" fill="#53657E" fill-rule="nonzero">
            <g id="Group-23" transform="translate(854.000000, 101.000000)">
                <g id="Group-24" transform="translate(467.000000, 36.000000)">
                    <g id="close_dark">
                        <path d="M6.49,7.5 L0.21,13.79 C-0.07,14.06 -0.07,14.51 0.21,14.79 C0.49,15.07 0.94,15.07 1.21,14.79 L7.5,8.51 L13.79,14.79 C14.06,15.07 14.51,15.07 14.79,14.79 C15.07,14.51 15.07,14.06 14.79,13.79 L8.51,7.5 L14.79,1.21 C15.07,0.94 15.07,0.49 14.79,0.21 C14.51,-0.07 14.06,-0.07 13.79,0.21 L7.5,6.49 L1.21,0.21 C0.94,-0.07 0.49,-0.07 0.21,0.21 C-0.07,0.49 -0.07,0.94 0.21,1.21 L6.49,7.5 Z" id="Shape"></path>
                    </g>
                </g>
            </g>
        </g>
    </g>
</svg>