<?xml version="1.0" encoding="UTF-8"?>
<svg width="26px" height="23px" viewBox="0 0 26 23" version="1.1" xmlns="http://www.w3.org/2000/svg" xmlns:xlink="http://www.w3.org/1999/xlink">
    <!-- Generator: sketchtool 63.1 (101010) - https://sketch.com -->
    <title>8D744023-F220-40B7-B590-E88EE4BDAC94</title>
    <desc>Created with sketchtool.</desc>
    <g id="Homepage-&amp;-Cubicle" stroke="none" stroke-width="1" fill="none" fill-rule="evenodd">
        <g id="Phase-1" transform="translate(-455.000000, -193.000000)">
            <g id="computer-(1)-+-computer-(1)-copy-+-TOTAL-SEATS-+-45-Mask-Copy" transform="translate(431.000000, 180.000000)">
                <g id="Group-15" transform="translate(24.000000, 13.000000)">
                    <g id="Occupied-Seats-1">
                        <path d="M15.5883121,-8.50519653e-14 C16.8813744,-8.50519653e-14 17.9296943,1.04831991 17.9296943,2.34138219 C17.9296943,3.63444448 16.8813744,4.68276439 15.5883121,4.68276439 C14.2952498,4.68276439 13.2469299,3.63444448 13.2469299,2.34138219 C13.2469299,1.04831991 14.2952498,-8.50519653e-14 15.5883121,-8.50519653e-14 Z" id="Path" fill="#A24344"></path>
                        <path d="M19.9303725,12.9483637 C19.8783597,10.965023 19.2284014,9.0631288 19.177195,7.08825537 C19.1017966,4.21182683 14.6940146,4.14650843 14.658533,6.95237699 C12.9715444,7.23945536 11.2865717,7.39186495 9.57135906,7.31122495 C8.01460399,7.23824576 8.00976559,9.64978475 9.55563426,9.72195754 C11.3571317,9.80622633 13.1441139,9.63526955 14.918597,9.34415918 C15.1008434,10.3997367 15.3165553,11.4500726 15.3850993,12.5177461 C11.7143669,13.799922 9.67981985,16.9065777 9.16049829,20.8547118 C9.15686949,20.8817262 9.15606309,20.9107566 9.15364389,20.9389806 L9.15324069,21.2163821 C9.30605348,22.760638 11.9417716,22.619518 12.1740148,20.8518894 C12.575602,17.7976496 14.3569394,15.7582642 17.3519088,15.0833075 C18.5969903,15.2728115 19.9723053,14.5651955 19.9303725,12.9483637 Z" id="Path" fill="#A24344"></path>
                        <path d="M14.6817391,12.5131034 C14.5070191,12.5131034 14.3652174,12.3746869 14.3652174,12.2041379 C14.3652174,12.0335889 14.5070191,11.8951724 14.6817391,11.8951724 L20.8304904,11.8951724 C20.767186,12.1006345 20.7067304,12.3067145 20.6469078,12.5131034 L14.6817391,12.5131034 Z M22.9113043,22.0910344 C22.9113043,22.2615834 22.7695026,22.4 22.5947826,22.4 L14.3652174,22.4 C14.1904974,22.4 14.0486956,22.2615834 14.0486956,22.0910344 C14.0486956,21.9204855 14.1904974,21.7820689 14.3652174,21.7820689 L22.5947826,21.7820689 C22.7695026,21.7820689 22.9113043,21.9204855 22.9113043,22.0910344 Z M20.0626087,18.3834482 C20.0626087,18.5539972 19.9208069,18.6924138 19.7460869,18.6924138 L19.1130434,18.6924138 C18.9380069,18.6924138 18.7965217,18.8305213 18.7965217,19.0013793 L18.7965217,20.2372413 C18.7965217,20.4080993 18.9380069,20.5462069 19.1130434,20.5462069 L19.7460869,20.5462069 C19.9208069,20.5462069 20.0626087,20.6846234 20.0626087,20.8551724 L20.0626087,21.1641379 L16.8973913,21.1641379 L16.8973913,20.8551724 C16.8973913,20.6846234 17.039193,20.5462069 17.213913,20.5462069 L17.8469565,20.5462069 C18.021993,20.5462069 18.1634782,20.4080993 18.1634782,20.2372413 L18.1634782,19.0013793 C18.1634782,18.8305213 18.021993,18.6924138 17.8469565,18.6924138 L17.213913,18.6924138 C17.039193,18.6924138 16.8973913,18.5539972 16.8973913,18.3834482 L16.8973913,18.0744827 L20.0626087,18.0744827 L20.0626087,18.3834482 Z M25.615033,6.19352275 L25.5165947,6.54543447 C25.0509913,8.21199447 24.7100973,9.92551722 24.5037252,11.6399669 L24.4882156,11.7697324 C24.2850086,13.4529765 23.9504452,15.1365296 23.4930713,16.7737379 C23.3810226,17.175702 23.0043617,17.4565517 22.5770573,17.4565517 L12.7826087,17.4565517 C11.9099582,17.4565517 11.2,16.763542 11.2,15.9117241 C11.2,15.0599062 11.9099582,14.3668965 12.7826087,14.3668965 C12.9823339,14.3668965 13.1855408,14.3755476 13.3868487,14.3925407 L20.0907791,14.9616551 C20.0721043,15.1745324 20.0626087,15.3886455 20.0626087,15.6027586 L20.6956521,15.6027586 C20.6956521,15.0144882 20.7735165,14.4271448 20.926713,13.8580303 L21.0492069,13.403542 C21.8515895,10.4282041 23.0103756,7.54277516 24.4935965,4.8275862 C24.611026,4.61347309 24.8386052,4.47999999 25.0873913,4.47999999 C25.4583547,4.47999999 25.7599999,4.77444413 25.7599999,5.13655171 C25.7599999,5.49340688 25.7112556,5.84902619 25.615033,6.19352275 Z" id="Shape" fill="#C15A5B" fill-rule="nonzero"></path>
                        <line x1="12.6" y1="10.92" x2="0.279999999" y2="10.92" id="Line" stroke="#C15A5B" stroke-width="0.559999999" stroke-linecap="square"></line>
                        <rect id="Rectangle" fill="#C15A5B" x="5" y="11" width="3" height="11"></rect>
                    </g>
                </g>
            </g>
        </g>
    </g>
</svg>