<?xml version="1.0" encoding="UTF-8"?>
<svg width="19px" height="24px" viewBox="0 0 19 24" version="1.1" xmlns="http://www.w3.org/2000/svg" xmlns:xlink="http://www.w3.org/1999/xlink">
    <!-- Generator: sketchtool 63.1 (101010) - https://sketch.com -->
    <title>EADE654A-16BB-43F8-8D9B-25A21EB5A5F4</title>
    <desc>Created with sketchtool.</desc>
    <g id="Homepage-&amp;-Cubicle" stroke="none" stroke-width="1" fill="none" fill-rule="evenodd" fill-opacity="0.9">
        <g id="Phase-1" transform="translate(-250.000000, -193.000000)" fill="#69ACDF" fill-rule="nonzero">
            <g id="computer-(1)-+-computer-(1)-copy-+-TOTAL-SEATS-+-45-Mask" transform="translate(226.000000, 180.000000)">
                <g id="Group-9" transform="translate(24.000000, 13.000000)">
                    <g id="Total-Seats-1">
                        <g id="66621" transform="translate(0.345600, 0.000000)">
                            <path d="M17.5992414,21.2291993 L17.5992414,20.7275782 C17.5992414,20.5140803 17.4766779,20.3203508 17.2844309,20.2284281 C17.1618674,20.1696173 14.3300555,18.8481051 9.69636116,18.7467924 L9.69636116,16.8579294 C10.0259979,16.6666709 10.2493799,16.3133122 10.2493799,15.9050964 L10.2493799,15.2947495 L14.1719089,15.2947495 C14.1753684,15.2947495 14.1803104,15.2947495 14.1827815,15.2947495 C14.7936226,15.2947495 15.288819,14.7990589 15.288819,14.188712 C15.288819,14.0962951 15.2764638,14.0073376 15.2552129,13.9218396 C16.2204011,13.6030755 16.7274585,13.314458 16.7724314,13.2872766 C16.9414506,13.188435 17.0457285,13.0070606 17.0457285,12.8098716 L17.0457285,9.7853186 L17.5700832,9.7853186 C17.8759979,9.7853186 18.1231019,9.53772039 18.1231019,9.23229984 C18.1231019,8.92687929 17.8759979,8.67928107 17.5700832,8.67928107 L15.4158305,8.67928107 C15.1104099,8.67928107 14.8633059,8.92687929 14.8633059,9.23229984 C14.8633059,9.53772039 15.1104099,9.7853186 15.4158305,9.7853186 L15.9406794,9.7853186 L15.9406794,12.4683739 C15.6698534,12.5929143 15.1978847,12.7871381 14.5326807,12.9838328 L14.1580711,12.6092232 C13.9050366,12.3561887 13.5442647,12.240544 13.190906,12.3003432 C13.1785508,12.30232 12.0759727,12.4836943 10.2498741,12.5410225 L10.2498741,11.5748458 C12.2632776,11.4498112 13.2872766,11.0149081 13.4137938,10.95758 C13.8462258,10.7618736 14.1051908,10.3116501 14.0577468,9.83918727 L13.2101801,1.4193654 C13.1696551,1.01658588 12.9121727,0.667675022 12.5395398,0.510516874 C12.4149994,0.458130825 11.2654716,0 9.14334239,0 C7.0212132,0 5.87217958,0.458130825 5.74813337,0.510516874 C5.37451211,0.667675022 5.11752394,1.01609167 5.07699889,1.4193654 L4.22943215,9.8411641 C4.18149397,10.313627 4.44095318,10.7638505 4.8738794,10.9595568 C4.99990244,11.0163908 6.02390143,11.451788 8.03730487,11.5768226 L8.03730487,12.5429993 C6.21120627,12.4856712 5.10912241,12.3052852 5.09726142,12.30232 C4.74143165,12.2415324 4.38313084,12.3571771 4.12910792,12.6112 L3.75499246,12.9858097 C3.08880006,12.7891149 2.61683141,12.5948911 2.34699384,12.4703507 L2.34699384,9.78778964 L2.87134854,9.78778964 C3.1772633,9.78778964 3.4243673,9.54019143 3.4243673,9.23477088 C3.4243673,8.92935033 3.1772633,8.68175211 2.87134854,8.68175211 L0.716601615,8.68175211 C0.410686856,8.68175211 0.163582851,8.92935033 0.163582851,9.23477088 C0.163582851,9.54019143 0.410686856,9.78778964 0.716601615,9.78778964 L1.24095631,9.78778964 L1.24095631,12.8123427 C1.24095631,13.008049 1.3452342,13.190906 1.51425334,13.2902418 C1.5612031,13.3174232 2.07073156,13.6095002 3.04679238,13.9292528 C2.99193529,14.153129 3.00083104,14.3928199 3.09324794,14.6147193 C3.26473811,15.0278772 3.66801185,15.2972205 4.1152701,15.2972205 L8.03779908,15.2972205 L8.03779908,15.9080616 C8.03779908,16.3162775 8.2611811,16.6686478 8.59081784,16.8608947 L8.59081784,18.7497577 C3.95662933,18.8500819 1.12580585,20.1715941 1.00274805,20.2304049 C0.810995345,20.3228218 0.688431758,20.5170455 0.688431758,20.729555 L0.688431758,21.2321645 C0.375598088,21.420952 0.164077059,21.7604729 0.164077059,22.1528741 C0.164077059,22.7479005 0.647412493,23.2307417 1.24145052,23.2307417 C1.83697117,23.2307417 2.31931819,22.7479005 2.31931819,22.1528741 C2.31931819,21.7604729 2.10779716,21.4204578 1.79446928,21.2321645 L1.79446928,21.0967515 C2.62523295,20.7666206 5.05970161,19.9353627 8.59081784,19.8548068 L8.59081784,21.2321645 C8.27798417,21.420952 8.06646314,21.7604729 8.06646314,22.1528741 C8.06646314,22.7479005 8.54979857,23.2307417 9.1438366,23.2307417 C9.73935725,23.2307417 10.2217043,22.7479005 10.2217043,22.1528741 C10.2217043,21.7604729 10.0101832,21.4204578 9.69685537,21.2321645 L9.69685537,19.8548068 C13.214628,19.9363511 15.6584866,20.767609 16.4932039,21.0967515 L16.4932039,21.2321645 C16.179876,21.420952 15.968355,21.7604729 15.968355,22.1528741 C15.968355,22.7479005 16.4521847,23.2307417 17.0462227,23.2307417 C17.6412491,23.2307417 18.1235961,22.7479005 18.1235961,22.1528741 C18.1231019,21.7575076 17.9125693,21.4174925 17.5992414,21.2291993 Z M7.37704297,3.19456058 C7.40175337,3.18418221 8.00419293,2.93510137 9.14334239,2.93510137 C10.2824919,2.93510137 10.8844372,3.18418221 10.9096418,3.19456058 C11.0504911,3.25435975 11.116715,3.41645997 11.05741,3.55681505 C11.0124371,3.66208135 10.9096418,3.72583419 10.8023987,3.72583419 C10.7663215,3.72583419 10.7302443,3.71842107 10.6941671,3.70408904 C10.6902135,3.7021122 10.1584456,3.48812014 9.14284819,3.48812014 C8.12725073,3.48812014 7.59548291,3.7021122 7.59004662,3.70458324 C7.44919734,3.763394 7.28808552,3.6956875 7.22927477,3.55533242 C7.17095823,3.41497735 7.2371821,3.25337133 7.37704297,3.19456058 Z M7.10078069,4.87338519 C7.12944475,4.8615242 7.82281859,4.57488355 9.1438366,4.57488355 C10.4648546,4.57488355 11.1582285,4.8615242 11.1868925,4.87338519 C11.3277418,4.93318436 11.3939657,5.09528458 11.3351549,5.23563966 C11.2896878,5.34090596 11.1868925,5.4046588 11.0796494,5.4046588 C11.0435722,5.4046588 11.007495,5.39773989 10.971912,5.38291365 C10.9659815,5.38093681 10.3403142,5.1274081 9.1438366,5.1274081 C7.94735901,5.1274081 7.32119746,5.38044261 7.31477276,5.38340785 C7.17392347,5.4417244 7.01281166,5.37500632 6.95400091,5.23465124 C6.89519016,5.09429617 6.95993141,4.93269015 7.10078069,4.87338519 Z M9.14334239,6.76669607 C7.76598467,6.76669607 7.04493518,7.05877301 7.03801627,7.06173826 C6.89617857,7.11956059 6.73556097,7.05432514 6.67625601,6.91347585 C6.61793946,6.77262657 6.68366913,6.61151476 6.8240242,6.5522098 C6.85614772,6.53837197 7.64144425,6.21367731 9.14334239,6.21367731 C10.6452405,6.21367731 11.4305371,6.53837197 11.4626606,6.5522098 C11.6025215,6.61151476 11.6682511,6.77262657 11.6104288,6.91347585 C11.5649616,7.01923637 11.4626606,7.0829892 11.354429,7.0829892 C11.3188461,7.0829892 11.2827689,7.07607029 11.2476801,7.06173826 C11.2422438,7.05926722 10.5211943,6.76669607 9.14334239,6.76669607 Z" id="Shape"></path>
                        </g>
                    </g>
                </g>
            </g>
        </g>
    </g>
</svg>