<?xml version="1.0" encoding="UTF-8"?>
<svg width="9px" height="7px" viewBox="0 0 9 7" version="1.1" xmlns="http://www.w3.org/2000/svg" xmlns:xlink="http://www.w3.org/1999/xlink">
    <!-- Generator: sketchtool 63.1 (101010) - https://sketch.com -->
    <title>BDD86440-652C-4B67-80C0-AD8D3C4E3E87</title>
    <desc>Created with sketchtool.</desc>
    <g id="Homepage-&amp;-Cubicle" stroke="none" stroke-width="1" fill="none" fill-rule="evenodd">
        <g id="Phase-1" transform="translate(-267.000000, -465.000000)" fill="#73BBD4" fill-rule="nonzero">
            <g id="Group-12" transform="translate(226.000000, 350.000000)">
                <g id="Group-5">
                    <g transform="translate(0.000000, 47.000000)">
                        <g id="Group-2" transform="translate(14.000000, 42.500000)">
                            <g id="Group" transform="translate(0.000000, 21.500000)">
                                <g id="Group-4" transform="translate(27.000000, 4.000000)">
                                    <path d="M7.95143444,2.55715444 L7.96389103,2.5597359 L2.62403875,2.5597359 L4.30269326,0.965928219 C4.38489374,0.888115542 4.42998398,0.782705794 4.42998398,0.672071656 C4.42998398,0.561437518 4.38489374,0.456765331 4.30269326,0.378768264 L4.04149425,0.131193648 C3.95935865,0.0533809715 3.84990939,0.0103565846 3.73319379,0.0103565846 C3.61641331,0.0103565846 3.50689917,0.0530736545 3.42476357,0.130886331 L0.547227693,2.8567271 C0.464767699,2.93484709 0.419677459,3.03890465 0.420000111,3.14960025 C0.419677459,3.26091048 0.464767699,3.3650295 0.547227693,3.44302657 L3.42476357,6.16911319 C3.50689917,6.2468644 3.61634843,6.28964293 3.73319379,6.28964293 C3.84990939,6.28964293 3.95935865,6.24680294 4.04149425,6.16911319 L4.30269326,5.92153857 C4.38489374,5.84384882 4.42998398,5.74009858 4.42998398,5.62946445 C4.42998398,5.51889177 4.38489374,5.42061178 4.30269326,5.34286057 L2.60509436,3.74014069 L7.95740322,3.74014069 C8.19790613,3.74014069 8.40000124,3.54376509 8.40000124,3.31604316 L8.40000124,2.96588611 C8.40000124,2.73816418 8.19193735,2.55715444 7.95143444,2.55715444 Z" id="Path" transform="translate(4.410001, 3.150000) scale(-1, 1) translate(-4.410001, -3.150000) "></path>
                                </g>
                            </g>
                        </g>
                    </g>
                </g>
            </g>
        </g>
    </g>
</svg>